G04*
G04 #@! TF.GenerationSoftware,Altium Limited,Altium Designer,18.0.7 (293)*
G04*
G04 Layer_Physical_Order=1*
G04 Layer_Color=255*
%FSLAX25Y25*%
%MOIN*%
G70*
G01*
G75*
%ADD12C,0.01000*%
%ADD22C,0.05512*%
%ADD23C,0.06000*%
%ADD24C,0.05906*%
%ADD25R,0.05906X0.05906*%
%ADD26C,0.07000*%
%ADD27R,0.06000X0.06000*%
%ADD28R,0.05906X0.05906*%
%ADD29R,0.06000X0.06000*%
%ADD30C,0.05000*%
D12*
X589450Y467350D02*
X600000Y456800D01*
Y378000D02*
Y456800D01*
Y378000D02*
X605500Y372500D01*
X635500Y324900D02*
Y449000D01*
X613000Y471500D02*
X635500Y449000D01*
X581600Y471500D02*
X613000D01*
X651914Y327086D02*
Y380110D01*
Y327086D02*
X662500Y316500D01*
X651466Y453534D02*
X651914Y380110D01*
X626500Y478500D02*
X651466Y453534D01*
X579812Y478500D02*
X626500D01*
X669000Y391500D02*
Y462000D01*
X645500Y485500D02*
X669000Y462000D01*
X570500Y485500D02*
X645500D01*
X687500Y322000D02*
Y469500D01*
X664000Y493000D02*
X687500Y469500D01*
X153500Y493000D02*
X664000D01*
X441500Y127500D02*
Y171500D01*
X344000Y127500D02*
X441500D01*
X344000D02*
Y150000D01*
X452500Y123150D02*
Y170500D01*
X333000Y123150D02*
X452500D01*
X333000D02*
Y148000D01*
X553500Y159500D02*
Y223000D01*
X512300Y264200D02*
X553500Y223000D01*
X512300Y264200D02*
Y432000D01*
X528000Y239500D02*
X546000Y221500D01*
X501000Y239500D02*
X528000D01*
X501000Y227000D02*
Y239500D01*
X546000Y167400D02*
Y221500D01*
X497600Y119000D02*
X546000Y167400D01*
X522500Y211500D02*
X532500Y201500D01*
Y173000D02*
Y201500D01*
X523500Y164000D02*
X532500Y173000D01*
X487000Y164000D02*
X523500D01*
X314000Y401500D02*
X317500D01*
X525200Y226000D02*
X539000Y212200D01*
Y169500D02*
Y212200D01*
X526000Y156500D02*
X539000Y169500D01*
X478500Y156500D02*
X526000D01*
X420600Y214400D02*
X478500Y156500D01*
X454350Y196650D02*
X487000Y164000D01*
X454350Y196650D02*
Y217950D01*
X494000Y177000D02*
X510500D01*
X465500Y205500D02*
X494000Y177000D01*
X463000Y205500D02*
X465500D01*
X608000Y318000D02*
X609500Y316500D01*
Y246500D02*
Y316500D01*
X605500Y246500D02*
X609500D01*
X594500Y257500D02*
X605500Y246500D01*
X603000Y330000D02*
Y343000D01*
X598900Y325900D02*
X603000Y330000D01*
X598900Y289100D02*
Y325900D01*
X603000Y343000D02*
X608000Y348000D01*
X598000Y348500D02*
X602000Y352500D01*
X598000Y335000D02*
Y348500D01*
X591000Y328000D02*
X598000Y335000D01*
X605500Y372500D02*
X614000D01*
X619000Y367500D01*
Y355000D02*
Y367500D01*
X616500Y352500D02*
X619000Y355000D01*
X602000Y352500D02*
X616500D01*
X589000Y224000D02*
Y316000D01*
X588000Y223000D02*
X589000Y224000D01*
X600000Y264000D02*
X604500Y259500D01*
X598900Y289100D02*
X600000Y288000D01*
Y264000D02*
Y288000D01*
X603100Y297000D02*
Y320500D01*
Y297000D02*
X604500Y295600D01*
Y276500D02*
Y295600D01*
X608000Y338000D02*
X620000Y326000D01*
Y282000D02*
Y326000D01*
X614500Y276500D02*
X620000Y282000D01*
X507500Y113500D02*
X553500Y159500D01*
X417500Y135500D02*
X419000Y134000D01*
X386500Y135500D02*
X417500D01*
X382500Y139500D02*
X386500Y135500D01*
X382500Y139500D02*
Y200500D01*
X352500Y158500D02*
X366000D01*
X344000Y150000D02*
X352500Y158500D01*
X348500Y163500D02*
X360000D01*
X333000Y148000D02*
X348500Y163500D01*
X238300Y397200D02*
X239500Y398400D01*
Y423300D01*
X266500Y349500D02*
Y402000D01*
X249000Y332000D02*
X266500Y349500D01*
X247000Y421500D02*
X266500Y402000D01*
X239500Y320400D02*
X243500Y324400D01*
X239500Y132049D02*
Y320400D01*
Y132049D02*
X258049Y113500D01*
X280500Y255000D02*
X295500D01*
X326000Y224500D01*
Y140000D02*
Y224500D01*
X316000Y130000D02*
X326000Y140000D01*
X298000Y130000D02*
X316000D01*
X289500Y138500D02*
X298000Y130000D01*
X254500Y138500D02*
X289500D01*
X303350Y440000D02*
Y444850D01*
X328000Y430000D02*
X409864D01*
X430000Y450136D01*
X480850Y476650D02*
X497000Y460500D01*
X438000Y476650D02*
X480850D01*
X432600Y482500D02*
X489877D01*
X420000Y469900D02*
X432600Y482500D01*
X489877D02*
X518700Y453677D01*
X506500Y488500D02*
X552500Y442500D01*
X431522Y488500D02*
X506500D01*
X414500Y471478D02*
X431522Y488500D01*
X555000Y398000D02*
X565500Y387500D01*
Y374400D02*
Y387500D01*
Y374400D02*
X579000Y360900D01*
X585500Y363500D02*
Y461000D01*
Y363500D02*
X591000Y358000D01*
X627500Y295500D02*
Y367500D01*
Y295500D02*
X636500Y286500D01*
Y272000D02*
Y286500D01*
X617000Y378000D02*
X627500Y367500D01*
X624500Y260000D02*
X636500Y272000D01*
X624500Y242000D02*
Y260000D01*
X635500Y324900D02*
X648900Y311500D01*
X677000D02*
X687500Y322000D01*
X648900Y311500D02*
X677000D01*
X669000Y391500D02*
X678500Y382000D01*
X567000Y465688D02*
X579812Y478500D01*
X409378Y476600D02*
X414500Y471478D01*
X233800Y476600D02*
X409378D01*
X121500Y461000D02*
X153500Y493000D01*
X421500Y303500D02*
X428000Y310000D01*
X394500Y303500D02*
X421500D01*
X388000Y310000D02*
X394500Y303500D01*
X374500Y321000D02*
X412000D01*
X329700Y276200D02*
X374500Y321000D01*
X412000D02*
X418000Y327000D01*
X310000Y276200D02*
X329700D01*
X295500Y348000D02*
X302000Y341500D01*
Y284200D02*
Y341500D01*
Y284200D02*
X310000Y276200D01*
X306500Y328500D02*
X311500Y333500D01*
X306500Y323500D02*
Y328500D01*
Y323500D02*
X331400D01*
X317500Y401500D02*
X320000Y399000D01*
Y334400D02*
Y399000D01*
X319100Y333500D02*
X320000Y334400D01*
X314000Y360000D02*
Y395000D01*
X312000Y358000D02*
X314000Y360000D01*
X366000Y158500D02*
Y167000D01*
X365500Y250500D02*
Y253500D01*
X382500Y270500D01*
X398500D01*
X388486Y316850D02*
X415250D01*
X383500Y311864D02*
X388486Y316850D01*
X383500Y309100D02*
Y311864D01*
X415250Y316850D02*
X422500Y324100D01*
X444701Y303401D02*
Y313299D01*
X432500Y325500D02*
X444701Y313299D01*
X432500Y325500D02*
Y331500D01*
X420600Y279300D02*
X444701Y303401D01*
X448850Y298850D02*
Y333150D01*
X431625Y281625D02*
X448850Y298850D01*
X431625Y227075D02*
Y281625D01*
X394827Y387173D02*
X448850Y333150D01*
X333327Y387173D02*
X394827D01*
X453000Y294000D02*
Y353500D01*
X437350Y278350D02*
X453000Y294000D01*
X437350Y234150D02*
Y278350D01*
X407000Y399500D02*
X453000Y353500D01*
X325250Y399500D02*
X407000D01*
X439000Y441800D02*
X459000Y421800D01*
Y289300D02*
Y421800D01*
X441500Y271800D02*
X459000Y289300D01*
X147500Y266000D02*
Y419000D01*
Y266000D02*
X152000Y261500D01*
X147500Y419000D02*
X153500Y425000D01*
X137500Y442000D02*
X199200D01*
X130500Y435000D02*
X137500Y442000D01*
X130500Y378500D02*
Y435000D01*
X199200Y442000D02*
X233800Y476600D01*
X130500Y378500D02*
X139000Y370000D01*
X124000Y451300D02*
X133700Y461000D01*
X124000Y451300D02*
X124000Y224000D01*
X121500Y221500D02*
X124000Y224000D01*
X224500Y249500D02*
X233000Y241000D01*
Y118700D02*
Y241000D01*
Y118700D02*
X243200Y108500D01*
X220000Y245000D02*
X226000Y239000D01*
Y156500D02*
Y239000D01*
X206000Y136500D02*
X226000Y156500D01*
X583850Y467350D02*
X589450D01*
X580000Y463500D02*
X583850Y467350D01*
X575000Y464900D02*
X581600Y471500D01*
X567000Y427500D02*
Y465688D01*
X557500Y418000D02*
X567000Y427500D01*
X560500Y475500D02*
X570500Y485500D01*
X560500Y438300D02*
Y475500D01*
X559700Y437500D02*
X560500Y438300D01*
X594500Y257500D02*
Y259500D01*
X527350Y376756D02*
X531500Y372607D01*
Y269500D02*
Y372607D01*
Y269500D02*
X588000Y213000D01*
X518700Y266300D02*
X563200Y221800D01*
X518700Y266300D02*
Y453677D01*
X563200Y172500D02*
Y221800D01*
X600500Y162500D02*
Y172000D01*
X595000Y177500D02*
X600500Y172000D01*
X586000Y177500D02*
X595000D01*
X593000Y155000D02*
X600500Y162500D01*
X579500Y155000D02*
X593000D01*
X571500Y163000D02*
X579500Y155000D01*
X588000Y203000D02*
X606500Y184500D01*
Y150000D02*
Y184500D01*
X565000Y108500D02*
X606500Y150000D01*
X243200Y108500D02*
X565000D01*
X360000Y173000D02*
X366000Y167000D01*
X360000Y173000D02*
Y174000D01*
X224500Y249500D02*
Y365000D01*
X190200Y157800D02*
Y190300D01*
Y157800D02*
X201500Y146500D01*
X206000D01*
X196500Y126500D02*
X206000D01*
X176500Y146500D02*
X196500Y126500D01*
X176500Y146500D02*
Y194000D01*
X190000Y116500D02*
X206000D01*
X169000Y137500D02*
X190000Y116500D01*
X169000Y137500D02*
Y191500D01*
X142500Y242000D02*
X152000Y251500D01*
X142500Y221000D02*
Y242000D01*
Y221000D02*
X152000Y211500D01*
X382500Y230500D02*
X441500Y171500D01*
X382500Y240500D02*
X452500Y170500D01*
X265773Y119000D02*
X497600D01*
X245800Y138973D02*
X265773Y119000D01*
X258049Y113500D02*
X507500D01*
X439000Y455500D02*
Y455800D01*
Y441800D02*
Y455500D01*
X303350Y444850D02*
X313500Y455000D01*
X303350Y440000D02*
X318000D01*
X256200D02*
X303350D01*
Y347150D02*
Y440000D01*
X398500Y270500D02*
X438000Y310000D01*
X551500Y418000D02*
X557500D01*
X548500Y415000D02*
X551500Y418000D01*
X548500Y398000D02*
Y415000D01*
Y398000D02*
X555000D01*
X579000Y264000D02*
Y360900D01*
X574500Y259500D02*
X579000Y264000D01*
X414500Y467500D02*
Y471478D01*
X607500Y378000D02*
X617000D01*
X230500Y340500D02*
Y361500D01*
Y340500D02*
X239000Y332000D01*
X583500Y180000D02*
X586000Y177500D01*
X583500Y180000D02*
Y205000D01*
X586000Y207500D01*
X590000D01*
X624500Y242000D01*
X152000Y191500D02*
X156500Y196000D01*
Y207000D01*
X152000Y211500D02*
X156500Y207000D01*
X463000Y215500D02*
X487500Y240000D01*
Y375200D01*
X489300Y377000D01*
X496500D01*
Y386500D01*
X470500D02*
X496500D01*
X470500D02*
Y417000D01*
X475000Y421500D01*
X314000Y401500D02*
Y405000D01*
X311500Y333500D02*
X319100D01*
X331400Y323500D02*
X343600Y335700D01*
X428300D01*
X432500Y331500D01*
X420600Y214400D02*
Y279300D01*
X514800Y226000D02*
X525200D01*
X509300Y231500D02*
X514800Y226000D01*
X505500Y231500D02*
X509300D01*
X255800Y265000D02*
X263500D01*
X245800Y255000D02*
X255800Y265000D01*
X245800Y138973D02*
Y255000D01*
X501000Y227000D02*
X507500D01*
X510000Y224500D01*
Y216000D02*
Y224500D01*
X505500Y211500D02*
X510000Y216000D01*
X446000Y265500D02*
X458500Y253000D01*
Y211000D02*
Y253000D01*
Y211000D02*
X476500D01*
X506000Y181500D01*
X514000Y213000D02*
X522500Y221500D01*
X514000Y180500D02*
Y213000D01*
X510500Y177000D02*
X514000Y180500D01*
X330500Y390000D02*
Y395000D01*
Y390000D02*
X333327Y387173D01*
X431625Y227075D02*
X438200Y220500D01*
X451800D01*
X454350Y217950D01*
X434500Y468000D02*
Y473150D01*
X438000Y476650D01*
X523200Y270800D02*
X571000Y223000D01*
X523200Y270800D02*
Y409700D01*
X536000Y422500D01*
X238300Y389800D02*
Y397200D01*
X230000Y381500D02*
X238300Y389800D01*
X239500Y423300D02*
X256200Y440000D01*
X318000D02*
X328000Y430000D01*
X430000Y450136D02*
Y453000D01*
X432500Y455500D01*
X439000D01*
X441500Y240000D02*
X446000Y235500D01*
X303350Y347150D02*
X312500Y338000D01*
X307500Y352500D02*
X312000Y348000D01*
X307500Y352500D02*
Y366200D01*
X309000Y367700D01*
Y407500D01*
X311500Y410000D01*
X399500D01*
X434500Y445000D01*
Y451000D01*
X247000Y378114D02*
Y381500D01*
X239539Y370653D02*
X247000Y378114D01*
X239539Y349161D02*
Y370653D01*
Y349161D02*
X243500Y345200D01*
Y324400D02*
Y345200D01*
X488542Y455758D02*
X512300Y432000D01*
X476742Y455758D02*
X488542D01*
X464500Y468000D02*
X476742Y455758D01*
X583500Y168500D02*
X588000Y173000D01*
X567200Y168500D02*
X583500D01*
X563200Y172500D02*
X567200Y168500D01*
X420000Y447700D02*
Y469900D01*
X417300Y445000D02*
X420000Y447700D01*
X330500Y445000D02*
X417300D01*
X224500Y365000D02*
X226000Y366500D01*
X232500D01*
X235300Y369300D01*
Y374300D01*
X242500Y381500D01*
Y394300D01*
X245000Y396800D01*
X247000D01*
Y401500D01*
X201500Y420000D02*
X230000Y391500D01*
X155500Y420000D02*
X201500D01*
X290000Y358000D02*
X295500D01*
X276000Y344000D02*
X290000Y358000D01*
X276000Y270500D02*
Y344000D01*
Y270500D02*
X305500D01*
X365500Y210500D01*
X414050Y168950D02*
X419000Y164000D01*
X414050Y168950D02*
Y188950D01*
X382500Y220500D02*
X414050Y188950D01*
X378000Y246000D02*
X382500Y250500D01*
X378000Y152000D02*
Y246000D01*
X360000Y134000D02*
X378000Y152000D01*
X575000Y461000D02*
Y464900D01*
X147000Y156500D02*
X160700Y170200D01*
Y213200D01*
X169000Y221500D01*
X280500Y235000D02*
X285000Y239500D01*
Y247000D01*
X282500Y249500D02*
X285000Y247000D01*
X277500Y249500D02*
X282500D01*
X268000Y240000D02*
X277500Y249500D01*
X261500Y240000D02*
X268000D01*
X254500Y233000D02*
X261500Y240000D01*
X254500Y178500D02*
Y233000D01*
X301200Y180800D02*
X313500Y168500D01*
X301200Y180800D02*
Y204300D01*
X280500Y225000D02*
X301200Y204300D01*
X313500Y445000D02*
X318000Y449500D01*
Y459500D01*
X250175D02*
X318000D01*
X234500Y443825D02*
X250175Y459500D01*
X234500Y416000D02*
Y443825D01*
X230000Y411500D02*
X234500Y416000D01*
X322150Y443350D02*
X330500Y435000D01*
X322150Y443350D02*
Y463650D01*
X242936D02*
X322150D01*
X221350Y442064D02*
X242936Y463650D01*
X221350Y410150D02*
Y442064D01*
Y410150D02*
X230000Y401500D01*
X424500Y451000D02*
Y455317D01*
X430000Y460817D01*
X434317D01*
X440000Y466500D01*
Y470000D01*
X442500Y472500D01*
X447500D01*
X450000Y470000D01*
Y446500D02*
Y470000D01*
Y446500D02*
X475000Y421500D01*
X437350Y234150D02*
X446000Y225500D01*
X325250Y333250D02*
Y399500D01*
X320000Y328000D02*
X325250Y333250D01*
X312500Y328000D02*
X320000D01*
X441500Y240000D02*
Y271800D01*
X439000Y455800D02*
X444500Y461300D01*
Y468000D01*
X312500Y318000D02*
X358600D01*
X372100Y331500D01*
X420000D01*
X422500Y329000D01*
Y324100D02*
Y329000D01*
X372700Y298300D02*
X383500Y309100D01*
X372700Y267700D02*
Y298300D01*
X365500Y260500D02*
X372700Y267700D01*
X268900Y233400D02*
X280500Y245000D01*
X268900Y182400D02*
Y233400D01*
X254500Y168000D02*
X268900Y182400D01*
X206000Y156500D02*
Y161000D01*
X220000Y175000D01*
X133700Y461000D02*
X191500D01*
X112500Y338000D02*
Y452000D01*
X121500Y461000D01*
X580000Y429500D02*
Y463500D01*
X553000Y402500D02*
X580000Y429500D01*
X534000Y437500D02*
X559700D01*
X531500Y435000D02*
X534000Y437500D01*
X531500Y427000D02*
Y435000D01*
Y427000D02*
X536000Y422500D01*
X564500Y276500D02*
X569500Y271500D01*
Y241500D02*
Y271500D01*
Y241500D02*
X588000Y223000D01*
X548500Y387000D02*
X553000Y382500D01*
X531500Y387000D02*
X548500D01*
X531500Y378773D02*
Y387000D01*
Y378773D02*
X557539Y352735D01*
Y266461D02*
Y352735D01*
Y266461D02*
X564500Y259500D01*
X528750Y392500D02*
X536000D01*
X527350Y391100D02*
X528750Y392500D01*
X527350Y376756D02*
Y391100D01*
X360000Y144000D02*
X372350Y156350D01*
Y250350D01*
X382500Y260500D01*
X395800Y469700D02*
X414500Y451000D01*
X237300Y469700D02*
X395800D01*
X192600Y425000D02*
X237300Y469700D01*
X153500Y425000D02*
X192600D01*
X492000Y391500D02*
X492850Y390650D01*
X500650D01*
Y374150D02*
Y390650D01*
X496500Y370000D02*
X500650Y374150D01*
X496500Y222850D02*
Y370000D01*
Y222850D02*
X500930D01*
Y222850D01*
X504150D01*
X505500Y221500D01*
X463000Y245500D02*
X474200Y256700D01*
Y338800D01*
X483163Y347763D01*
Y377163D01*
X487500Y381500D01*
X492000D01*
X564500Y276500D02*
Y354000D01*
X536000Y382500D02*
X564500Y354000D01*
X250000Y153000D02*
X254500Y148500D01*
X250000Y153000D02*
Y250000D01*
X260000Y260000D01*
X275500D01*
X280500Y265000D01*
X584500Y276500D02*
Y349100D01*
X588400Y353000D01*
X592500D01*
X598738Y359238D01*
Y363500D01*
X603238Y368000D01*
X607500D01*
X589000Y316000D02*
X591000Y318000D01*
X608000Y325400D02*
Y328000D01*
X603100Y320500D02*
X608000Y325400D01*
X169000Y256000D02*
Y261500D01*
X166500Y256000D02*
X169000D01*
X152000Y241500D02*
X166500Y256000D01*
X475000Y416000D02*
Y421500D01*
Y416000D02*
X477500D01*
X492000Y401500D01*
X295500Y290000D02*
Y298000D01*
X280500Y275000D02*
X295500Y290000D01*
X492000Y421500D02*
Y433500D01*
X474500Y451000D02*
X492000Y433500D01*
X169000Y211500D02*
X190200Y190300D01*
X382500Y210500D02*
X396600Y196400D01*
Y166400D02*
Y196400D01*
Y166400D02*
X419000Y144000D01*
X280500Y171500D02*
Y205000D01*
Y171500D02*
X313500Y138500D01*
X280500Y215000D02*
X291000Y204500D01*
Y171000D02*
Y204500D01*
Y171000D02*
X313500Y148500D01*
X169000Y201500D02*
X176500Y194000D01*
X536000Y432500D02*
X541498Y427002D01*
Y397998D02*
Y427002D01*
X536000Y392500D02*
X541498Y397998D01*
X139000Y264500D02*
X152000Y251500D01*
X139000Y264500D02*
Y370000D01*
X463000Y255500D02*
X467500Y260000D01*
Y374000D01*
X475000Y381500D01*
X152000Y231500D02*
Y241500D01*
X263500Y245000D02*
Y255000D01*
X365500Y240500D02*
Y250500D01*
X138500Y400000D02*
Y410000D01*
X522500Y191500D02*
Y201500D01*
X475000Y391500D02*
Y401500D01*
X571000Y193000D02*
Y203000D01*
X313500Y425000D02*
Y435000D01*
X330500Y415000D02*
Y425000D01*
X588000Y183000D02*
Y193000D01*
X463000Y225500D02*
Y235500D01*
D22*
X121500Y461000D02*
D03*
X191500D02*
D03*
X220000Y245000D02*
D03*
Y175000D02*
D03*
D23*
X419000Y134000D02*
D03*
Y144000D02*
D03*
Y154000D02*
D03*
Y164000D02*
D03*
Y174000D02*
D03*
X360000D02*
D03*
Y163500D02*
D03*
Y153500D02*
D03*
Y144000D02*
D03*
Y134000D02*
D03*
X313500Y138500D02*
D03*
Y148500D02*
D03*
Y158500D02*
D03*
Y168500D02*
D03*
Y178500D02*
D03*
X254500D02*
D03*
Y168000D02*
D03*
Y158000D02*
D03*
Y148500D02*
D03*
Y138500D02*
D03*
X206000Y116500D02*
D03*
Y126500D02*
D03*
Y136500D02*
D03*
Y146500D02*
D03*
Y156500D02*
D03*
X147000D02*
D03*
Y146000D02*
D03*
Y136000D02*
D03*
Y126500D02*
D03*
Y116500D02*
D03*
X280500Y205000D02*
D03*
Y215000D02*
D03*
Y225000D02*
D03*
Y235000D02*
D03*
Y245000D02*
D03*
Y255000D02*
D03*
Y265000D02*
D03*
X263500Y205000D02*
D03*
Y215000D02*
D03*
Y225000D02*
D03*
Y235000D02*
D03*
Y245000D02*
D03*
Y255000D02*
D03*
Y275000D02*
D03*
Y265000D02*
D03*
X382500Y200500D02*
D03*
Y210500D02*
D03*
Y220500D02*
D03*
Y230500D02*
D03*
Y240500D02*
D03*
Y250500D02*
D03*
Y260500D02*
D03*
X365500Y200500D02*
D03*
Y210500D02*
D03*
Y220500D02*
D03*
Y230500D02*
D03*
Y240500D02*
D03*
Y250500D02*
D03*
Y270500D02*
D03*
Y260500D02*
D03*
X169000Y191500D02*
D03*
Y201500D02*
D03*
Y211500D02*
D03*
Y221500D02*
D03*
Y231500D02*
D03*
Y241500D02*
D03*
Y251500D02*
D03*
X152000Y191500D02*
D03*
Y201500D02*
D03*
Y211500D02*
D03*
Y221500D02*
D03*
Y231500D02*
D03*
Y241500D02*
D03*
Y261500D02*
D03*
Y251500D02*
D03*
X230500Y361500D02*
D03*
Y371500D02*
D03*
X230000Y381500D02*
D03*
Y391500D02*
D03*
Y401500D02*
D03*
Y411500D02*
D03*
Y421500D02*
D03*
X247000Y411500D02*
D03*
Y401500D02*
D03*
Y391500D02*
D03*
Y381500D02*
D03*
Y371500D02*
D03*
Y361500D02*
D03*
X414500Y467500D02*
D03*
X424500D02*
D03*
X434500Y468000D02*
D03*
X444500D02*
D03*
X454500D02*
D03*
X464500D02*
D03*
X474500D02*
D03*
X464500Y451000D02*
D03*
X454500D02*
D03*
X444500D02*
D03*
X434500D02*
D03*
X424500D02*
D03*
X414500D02*
D03*
X314000Y395000D02*
D03*
Y405000D02*
D03*
X313500Y415000D02*
D03*
Y425000D02*
D03*
Y435000D02*
D03*
Y445000D02*
D03*
Y455000D02*
D03*
X330500Y445000D02*
D03*
Y435000D02*
D03*
Y425000D02*
D03*
Y415000D02*
D03*
Y405000D02*
D03*
Y395000D02*
D03*
X475500Y361500D02*
D03*
Y371500D02*
D03*
X475000Y381500D02*
D03*
Y391500D02*
D03*
Y401500D02*
D03*
Y411500D02*
D03*
Y421500D02*
D03*
X492000Y411500D02*
D03*
Y401500D02*
D03*
Y391500D02*
D03*
Y381500D02*
D03*
Y371500D02*
D03*
Y361500D02*
D03*
X571500Y163000D02*
D03*
Y173000D02*
D03*
X571000Y183000D02*
D03*
Y193000D02*
D03*
Y203000D02*
D03*
Y213000D02*
D03*
Y223000D02*
D03*
X588000Y213000D02*
D03*
Y203000D02*
D03*
Y193000D02*
D03*
Y183000D02*
D03*
Y173000D02*
D03*
Y163000D02*
D03*
X446500Y205500D02*
D03*
Y215500D02*
D03*
X446000Y225500D02*
D03*
Y235500D02*
D03*
Y245500D02*
D03*
Y255500D02*
D03*
Y265500D02*
D03*
X463000Y255500D02*
D03*
Y245500D02*
D03*
Y235500D02*
D03*
Y225500D02*
D03*
Y215500D02*
D03*
Y205500D02*
D03*
X139000Y370000D02*
D03*
Y380000D02*
D03*
X138500Y390000D02*
D03*
Y400000D02*
D03*
Y410000D02*
D03*
Y420000D02*
D03*
Y430000D02*
D03*
X155500Y420000D02*
D03*
Y410000D02*
D03*
Y400000D02*
D03*
Y390000D02*
D03*
Y380000D02*
D03*
Y370000D02*
D03*
X506000Y171500D02*
D03*
Y181500D02*
D03*
X505500Y191500D02*
D03*
Y201500D02*
D03*
Y211500D02*
D03*
Y221500D02*
D03*
Y231500D02*
D03*
X522500Y221500D02*
D03*
Y211500D02*
D03*
Y201500D02*
D03*
Y191500D02*
D03*
Y181500D02*
D03*
Y171500D02*
D03*
X624500Y260000D02*
D03*
X614500D02*
D03*
X604500Y259500D02*
D03*
X594500D02*
D03*
X584500D02*
D03*
X574500D02*
D03*
X564500D02*
D03*
X574500Y276500D02*
D03*
X584500D02*
D03*
X594500D02*
D03*
X604500D02*
D03*
X614500D02*
D03*
X624500D02*
D03*
X607500Y378000D02*
D03*
Y368000D02*
D03*
X608000Y358000D02*
D03*
Y348000D02*
D03*
Y338000D02*
D03*
Y328000D02*
D03*
Y318000D02*
D03*
X591000Y328000D02*
D03*
Y338000D02*
D03*
Y348000D02*
D03*
Y358000D02*
D03*
Y368000D02*
D03*
Y378000D02*
D03*
X378000Y326500D02*
D03*
X388000D02*
D03*
X398000Y327000D02*
D03*
X408000D02*
D03*
X418000D02*
D03*
X428000D02*
D03*
X438000D02*
D03*
X428000Y310000D02*
D03*
X418000D02*
D03*
X408000D02*
D03*
X398000D02*
D03*
X388000D02*
D03*
X378000D02*
D03*
X312000Y358000D02*
D03*
Y348000D02*
D03*
X312500Y338000D02*
D03*
Y328000D02*
D03*
Y318000D02*
D03*
Y308000D02*
D03*
Y298000D02*
D03*
X295500Y308000D02*
D03*
Y318000D02*
D03*
Y328000D02*
D03*
Y338000D02*
D03*
Y348000D02*
D03*
Y358000D02*
D03*
X552500Y442500D02*
D03*
Y432500D02*
D03*
X553000Y422500D02*
D03*
Y412500D02*
D03*
Y402500D02*
D03*
Y392500D02*
D03*
Y382500D02*
D03*
X536000Y392500D02*
D03*
Y402500D02*
D03*
Y412500D02*
D03*
Y422500D02*
D03*
Y432500D02*
D03*
Y442500D02*
D03*
D24*
X662500Y326500D02*
D03*
Y316500D02*
D03*
Y306500D02*
D03*
X121500Y211500D02*
D03*
Y221500D02*
D03*
X239000Y332000D02*
D03*
X229000D02*
D03*
X678500Y372000D02*
D03*
Y382000D02*
D03*
Y392000D02*
D03*
Y402000D02*
D03*
D25*
X662500Y296500D02*
D03*
X121500Y201500D02*
D03*
X678500Y412000D02*
D03*
D26*
X585000Y461000D02*
D03*
X575000D02*
D03*
X112500Y328000D02*
D03*
Y338000D02*
D03*
D27*
X280500Y275000D02*
D03*
X382500Y270500D02*
D03*
X169000Y261500D02*
D03*
X247000Y421500D02*
D03*
X330500Y455000D02*
D03*
X492000Y421500D02*
D03*
X588000Y223000D02*
D03*
X463000Y265500D02*
D03*
X155500Y430000D02*
D03*
X522500Y231500D02*
D03*
X591000Y318000D02*
D03*
X295500Y298000D02*
D03*
X536000Y382500D02*
D03*
D28*
X249000Y332000D02*
D03*
D29*
X474500Y451000D02*
D03*
X564500Y276500D02*
D03*
X438000Y310000D02*
D03*
D30*
X497000Y460500D02*
D03*
M02*
