M48
;Layer_Color=9474304
;FILE_FORMAT=2:5
INCH,LZ
;TYPE=PLATED
T1F00S00C0.02362
T2F00S00C0.02800
T3F00S00C0.03000
T4F00S00C0.03346
T5F00S00C0.03543
T6F00S00C0.05000
%
T01
X0506Y01715
Y01815
X05055Y01915
Y02015
Y02115
Y02215
Y02315
X05225
Y02215
Y02115
Y02015
Y01915
Y01815
Y01715
X05715Y0173
Y0163
X0588
Y0173
Y0183
Y0193
Y0203
Y0213
Y0223
X0571
Y0213
Y0203
Y0193
Y0183
X05745Y02595
X05845
X05945
X06045
X06145Y026
X06245
Y02765
X06145
X06045
X05945
X05845
X05745
X05645
Y02595
X0463Y02555
Y02655
X0446
Y02555
Y02455
Y02355
Y02255
X04465Y02155
Y02055
X0463
Y02155
Y02255
Y02355
Y02455
X0438Y031
X0428
X0418
X0408
X0398
X0388
X0378
X03125Y0308
Y0298
X03655Y02205
X02635Y0225
X02955Y0298
Y0308
X0152Y02115
X01555Y037
Y038
Y039
Y04
Y041
Y042
Y043
X01385
Y042
Y041
Y04
Y039
X0139Y038
Y037
X02305Y03715
Y03615
X0247
Y03715
Y03815
Y03915
Y04015
Y04115
Y04215
X023
Y04115
Y04015
Y03915
Y03815
X02955Y0358
Y0348
Y0338
Y0328
Y0318
X0312Y0348
Y0358
X03125Y0338
Y0328
Y0318
X0378Y03265
X0388
X0398Y0327
X0408
X0418
X0428
X0438
X04345Y0451
X04445
X04545
X04645
Y0468
X04545
X04445
X04345
X04245Y04675
X04145
Y0451
X04245
X03305Y0455
Y0445
Y0435
Y0425
Y0415
Y0405
Y0395
X0314
Y0405
X03135Y0415
Y0425
Y0435
Y0445
Y0455
X04745Y0451
Y0468
X0475Y04215
Y04115
Y04015
Y03915
Y03815
X04755Y03715
Y03615
X0492
Y03715
Y03815
Y03915
Y04015
Y04115
Y04215
X0536Y04225
Y04125
Y04025
Y03925
Y03825
X0553
Y03925
Y04025
Y04125
Y04225
X05525Y04325
Y04425
X0536
Y04325
X0591Y0378
Y0368
Y0358
Y0348
Y0338
Y0328
Y0318
X0608
Y0328
Y0338
Y0348
Y0358
X06075Y0368
Y0378
T02
X0497Y04605
T03
X0147Y01165
Y01265
Y0136
Y0146
X0206Y01465
Y01365
Y01265
Y01165
X02545Y01385
Y01485
X03135
Y01385
X036Y0134
Y0144
Y01535
X0419Y0154
Y0144
Y0134
Y0164
Y0174
X036
Y01635
X03655Y02005
Y02105
X03825
Y02005
Y02205
Y02305
Y02405
Y02505
Y02605
Y02705
X03655
Y02605
Y02505
Y02405
Y02305
X03135Y01785
Y01685
Y01585
X02545Y0158
Y0168
Y01785
X02635Y0205
Y0215
X02805
Y0205
Y0225
Y0235
Y0245
Y0255
Y0265
Y0275
X02635
Y0265
Y0255
Y0245
Y0235
X0169Y02315
Y02215
Y02115
Y02015
Y01915
Y02415
Y02515
Y02615
X0206Y01565
X0147
X0152Y01915
Y02015
Y02215
Y02315
Y02415
Y02515
Y02615
T04
X022Y0175
Y0245
X01215Y0461
X01915
T05
X06625Y02965
Y03065
X01215Y02215
Y02115
Y02015
X0229Y0332
X0239
X0249
X06625Y03265
Y03165
X06785Y0372
Y0382
Y0392
Y0402
Y0412
T06
X01125Y0328
Y0338
X0575Y0461
X0585
M30
