M48
;Layer_Color=9474304
;FILE_FORMAT=2:5
INCH,LZ
;TYPE=PLATED
T1F00S00C0.02362
T2F00S00C0.02800
T3F00S00C0.03000
T4F00S00C0.03543
%
T01
X0250777Y0138532
X0422544Y0143871
X0503339Y0136371
X0513339
X0523339
X0533339
X0543339
X0553339
X0563339
Y0153371
X0553339
X0543339
X0533339
X0523339
X0513339Y0152871
X0503339
X0523701Y0247064
Y0257064
X0523201Y0267064
Y0277064
Y0287064
Y0297064
Y0307064
X0540201
Y0297064
Y0287064
Y0277064
Y0267064
Y0257064
Y0247064
X0455309Y0249049
Y0259049
Y0269049
Y0279049
Y0289049
Y0299049
Y0309049
X0438309
Y0299049
Y0289049
Y0279049
Y0269049
X0438809Y0259049
Y0249049
X0396966Y0247305
Y0257305
Y0267305
Y0277305
Y0287305
Y0297305
Y0307305
X0379966
Y0297305
Y0287305
Y0277305
Y0267305
X0380466Y0257305
Y0247305
X0302836Y0251932
Y0261932
Y0271932
Y0281932
Y0291932
Y0301932
Y0311932
X0285836
Y0301932
Y0291932
Y0281932
Y0271932
X0286336Y0261932
Y0251932
X0207423Y0258329
Y0268329
Y0278329
Y0288329
Y0298329
Y0308329
X0190423
Y0298329
Y0288329
Y0278329
X0190923Y0268329
Y0258329
X0190423Y0318329
X0207423
X0229835Y035786
Y036786
X0229335Y037786
Y038786
Y039786
Y040786
Y041786
X0246335
Y040786
Y039786
Y038786
Y037786
Y036786
Y035786
X0300454Y0393889
Y0403889
X0299954Y0413889
Y0423889
Y0433889
Y0443889
Y0453889
X0316954
Y0443889
Y0433889
Y0423889
Y0413889
Y0403889
Y0393889
X0481898Y0371286
X0491898
X0501898
X0511898
X0521898
X0531898
X0541898
Y0354786
X0531898
X0521898Y0354286
X0511898
X0501898
X0491898
X0481898
X0553948Y0391094
X0563948
X0573948
X0583948
X0593948
X0603948Y0391594
X0613948
Y0408094
X0603948
X0593948
X0583948
X0573948
X0563948
X0553948
T02
X02889Y04093
T03
X0200777Y0138532
X0210777
X0220777
X0230777
X0240777
Y0155532
X0250777
X0260777
X0270777
Y0138532
X0260777
X0230777Y0155532
X0220777
X0210777
X0200777
X0372544Y0143871
X0382544
X0392544
X0402544
X0412544
X0432544
X0442544
Y0160871
X0432544
X0422544
X0412544
X0402544
X0392544
X0382544
X0372544
T04
X0637194Y0177343
Y0187343
Y0197343
Y0207343
Y0217343
Y0227343
Y0237343
Y0247343
Y0257343
Y0267343
Y0277343
Y0287343
X0489936Y0303956
X0341749Y0304902
Y0294902
Y0284902
X0250953Y028202
Y029202
Y030202
X0157996Y0303461
Y0293461
Y0283461
X041593Y032477
Y033477
Y034477
X0418764Y0399389
X0408764
X0398764
X0368349Y0403352
X0358349
X0348349
X0452809Y0398669
X0462809
X0472809
X0486235Y0444567
Y0454567
X0524626Y0452079
Y0462079
Y0442079
X0556078Y0439766
Y0449766
X058568Y044688
Y045688
Y046688
X0619118Y0450417
Y0440417
X0489936Y0323956
Y0313956
X0649Y0367289
X0659
X0669
X067185Y0403954
X066185
X065185
M30
