G04*
G04 #@! TF.GenerationSoftware,Altium Limited,Altium Designer,18.0.7 (293)*
G04*
G04 Layer_Physical_Order=2*
G04 Layer_Color=16711680*
%FSLAX25Y25*%
%MOIN*%
G70*
G01*
G75*
%ADD11C,0.01000*%
%ADD19R,0.05906X0.05906*%
%ADD20C,0.05906*%
%ADD21C,0.06000*%
%ADD22R,0.06000X0.06000*%
%ADD23R,0.05906X0.05906*%
%ADD24R,0.06000X0.06000*%
%ADD25C,0.05000*%
D11*
X637796Y411758D02*
X654047D01*
X627690Y401651D02*
X637796Y411758D01*
X610391Y401651D02*
X627690D01*
X603948Y408094D02*
X610391Y401651D01*
X654047Y411758D02*
X661850Y403954D01*
X450454Y254194D02*
X455309Y259049D01*
X402894Y254194D02*
X450454D01*
X401500Y252800D02*
X402894Y254194D01*
X432160Y242400D02*
X438809Y249049D01*
X349343Y252800D02*
X401500D01*
X339385Y242842D02*
X349343Y252800D01*
X303438Y242842D02*
X339385D01*
X289780Y256500D02*
X303438Y242842D01*
X260470Y256500D02*
X289780D01*
X368779Y235618D02*
X380466Y247305D01*
X302650Y235618D02*
X368779D01*
X286336Y251932D02*
X302650Y235618D01*
X298214Y276554D02*
X302836Y271932D01*
X224686Y276554D02*
X298214D01*
X222911Y278329D02*
X224686Y276554D01*
X220668Y271932D02*
X285836D01*
X219771Y272829D02*
X220668Y271932D01*
X260516Y267000D02*
X289500D01*
X243410Y249894D02*
X260516Y267000D01*
X181506Y249894D02*
X243410D01*
X144553Y286847D02*
X181506Y249894D01*
X254985Y349300D02*
X430423D01*
Y339800D02*
Y349300D01*
X411477Y339800D02*
X430423D01*
X489121Y324770D02*
X489936Y323956D01*
X415930Y324770D02*
X489121D01*
X481760Y360560D02*
X481950Y360750D01*
X477300Y356100D02*
X481760Y360560D01*
X449560D02*
X481760D01*
X442500Y353500D02*
X449560Y360560D01*
X515434Y360750D02*
X521898Y354286D01*
X481950Y360750D02*
X515434D01*
X637194Y207343D02*
X656905D01*
X667291Y196957D01*
X650810Y164827D02*
X667291Y181308D01*
Y196957D01*
X605327Y164827D02*
X650810D01*
X435387Y217343D02*
X637194D01*
X388044Y170000D02*
X435387Y217343D01*
X429367Y227343D02*
X637194D01*
X382544Y180520D02*
X429367Y227343D01*
X382544Y160871D02*
Y180520D01*
X224635Y144499D02*
X227318Y147182D01*
X216744Y144499D02*
X224635D01*
X210777Y138532D02*
X216744Y144499D01*
X227318Y147182D02*
X360330D01*
X372291Y135221D01*
X245277Y143032D02*
X340676D01*
X240777Y138532D02*
X245277Y143032D01*
X340676D02*
X353723Y129985D01*
X250777Y138532D02*
X266348Y122961D01*
X240777Y138532D02*
X266345Y112964D01*
X492000Y148400D02*
X492400Y148000D01*
X588500D01*
X353723Y129985D02*
X398658D01*
X412544Y143871D01*
X432544Y130821D02*
Y143871D01*
X424684Y122961D02*
X432544Y130821D01*
X266348Y122961D02*
X424684D01*
X539932Y112964D02*
X563339Y136371D01*
X266345Y112964D02*
X539932D01*
X240777Y155532D02*
Y161822D01*
X234966Y167633D02*
X240777Y161822D01*
X228439Y167633D02*
X234966D01*
X225800Y164994D02*
X228439Y167633D01*
X479419Y160871D02*
X515891Y197343D01*
X442544Y160871D02*
X479419D01*
X515891Y197343D02*
X637194D01*
X682369Y234669D02*
Y414084D01*
X673443Y423011D02*
X682369Y414084D01*
X578865Y423011D02*
X673443D01*
X563948Y408094D02*
X578865Y423011D01*
X660000Y212300D02*
X682369Y234669D01*
X144553Y323228D02*
X214625Y393300D01*
X144553Y286847D02*
Y323228D01*
X214625Y393300D02*
X250900D01*
X246349Y242379D02*
X260470Y256500D01*
X167128Y242379D02*
X246349D01*
X135595Y273912D02*
X167128Y242379D01*
X135595Y273912D02*
Y328995D01*
X209500Y402900D01*
X288900Y409300D02*
X298000Y418400D01*
X438309Y269049D02*
X442858Y264500D01*
X520636D01*
X523201Y267064D01*
X379966Y267305D02*
X387495D01*
X392200Y262600D01*
X431860D01*
X438309Y269049D01*
X438809Y249049D02*
X443758Y244100D01*
X520736D01*
X523701Y247064D01*
X380466Y247305D02*
X385371Y242400D01*
X432160D01*
X157996Y283461D02*
X183129Y258329D01*
X190923D01*
X488724Y452079D02*
X524626D01*
X486235Y454567D02*
X488724Y452079D01*
X592143Y440417D02*
X619118D01*
X585680Y446880D02*
X592143Y440417D01*
X526938Y449766D02*
X556078D01*
X524626Y452079D02*
X526938Y449766D01*
X558964Y446880D02*
X585680D01*
X556078Y449766D02*
X558964Y446880D01*
X311965Y448900D02*
X316954Y453889D01*
X277376Y448900D02*
X311965D01*
X246335Y417860D02*
X277376Y448900D01*
X489936Y303956D02*
X505600D01*
X507456Y302100D01*
X535236D01*
X540201Y307064D01*
X460402Y303956D02*
X489936D01*
X455309Y309049D02*
X460402Y303956D01*
X450358Y314000D02*
X455309Y309049D01*
X403661Y314000D02*
X450358D01*
X396966Y307305D02*
X403661Y314000D01*
X391971Y312300D02*
X396966Y307305D01*
X349146Y312300D02*
X391971D01*
X341749Y304902D02*
X349146Y312300D01*
X309866Y304902D02*
X341749D01*
X302836Y311932D02*
X309866Y304902D01*
X529825Y456880D02*
X585680D01*
X524626Y462079D02*
X529825Y456880D01*
X157996Y293461D02*
X185290D01*
X190423Y288329D01*
X261042Y281932D02*
X285836D01*
X250953Y292020D02*
X261042Y281932D01*
X489936Y313956D02*
X516309D01*
X523201Y307064D01*
X280418Y307350D02*
X285836Y301932D01*
X231950Y307350D02*
X280418D01*
X228400Y303800D02*
X231950Y307350D01*
X194952Y303800D02*
X228400D01*
X190423Y308329D02*
X194952Y303800D01*
X438309Y299049D02*
X442858Y294500D01*
X520636D01*
X523201Y297064D01*
X392339Y271932D02*
X396966Y267305D01*
X302836Y271932D02*
X392339D01*
X535265Y272000D02*
X540201Y267064D01*
X458260Y272000D02*
X535265D01*
X455309Y269049D02*
X458260Y272000D01*
X450358Y274000D02*
X455309Y269049D01*
X403661Y274000D02*
X450358D01*
X396966Y267305D02*
X403661Y274000D01*
X270777Y155532D02*
X369368D01*
X378000Y146900D01*
Y139371D02*
Y146900D01*
Y139371D02*
X385000D01*
X388000Y142371D01*
Y147800D01*
X398000Y157800D01*
Y165400D01*
X418015D01*
X422544Y160871D01*
X372291Y135221D02*
X393894D01*
X402544Y143871D01*
X298000Y418400D02*
X352296D01*
X353896Y416800D01*
Y398900D02*
Y416800D01*
Y398900D02*
X360200D01*
X363800Y402500D01*
Y411000D01*
X373600Y420800D01*
X552200D01*
X559400Y413600D01*
Y403600D02*
Y413600D01*
Y403600D02*
X567400Y395600D01*
X579442D01*
X583948Y391094D01*
X382544Y143871D02*
Y154100D01*
X388044Y159600D01*
Y170000D01*
X392544Y160871D02*
Y168100D01*
X396044Y171600D01*
X448800D01*
X489500Y212300D01*
X660000D01*
X250940Y353500D02*
X442500D01*
X250800Y353360D02*
X250940Y353500D01*
X226476Y353360D02*
X250800D01*
X225335Y354500D02*
X226476Y353360D01*
X225335Y354500D02*
Y372360D01*
X231594D01*
X234400Y375165D01*
Y382400D01*
X217700D02*
X234400D01*
X153500Y318200D02*
X217700Y382400D01*
X153500Y288500D02*
Y318200D01*
Y288500D02*
X165000D01*
X185171Y268329D01*
X190923D01*
X583948Y408094D02*
X592298Y399744D01*
X606253D01*
X608500Y397497D01*
Y266037D02*
Y397497D01*
Y266037D02*
X637194Y237343D01*
X573948Y408094D02*
X586448Y395594D01*
X599948D01*
X603948Y391594D01*
X246335Y357860D02*
X261060D01*
X268100Y364900D01*
X525512D01*
X531898Y371286D01*
X637194Y287343D02*
Y335482D01*
X669000Y367289D01*
X503884Y389300D02*
X521898Y371286D01*
X315043Y389300D02*
X503884D01*
X300454Y403889D02*
X315043Y389300D01*
X477300Y350100D02*
Y356100D01*
Y350100D02*
X493446Y333954D01*
X552954D01*
X593948Y374948D01*
Y391094D01*
X210777Y155532D02*
Y170000D01*
X229553Y188777D01*
X344638D01*
X372544Y160871D01*
X372312Y399389D02*
X398764D01*
X368349Y403352D02*
X372312Y399389D01*
X295900Y398443D02*
X300454Y393889D01*
X295900Y398443D02*
Y408900D01*
X342801D01*
X348349Y403352D01*
X349747Y401955D01*
Y400640D02*
Y401955D01*
X349746Y400640D02*
X349747D01*
X349746Y394750D02*
Y400640D01*
Y394750D02*
X414125D01*
X418764Y399389D01*
X285836Y271932D02*
X295654D01*
X300281Y267305D01*
X379966D01*
X195923Y272829D02*
X219771D01*
X190423Y278329D02*
X195923Y272829D01*
X241295Y402900D02*
X246335Y397860D01*
X209500Y402900D02*
X241295D01*
X387500Y257305D02*
X396966D01*
X382905Y261900D02*
X387500Y257305D01*
X313000Y261900D02*
X382905D01*
X308532Y257432D02*
X313000Y261900D01*
X299068Y257432D02*
X308532D01*
X289500Y267000D02*
X299068Y257432D01*
X250900Y393300D02*
Y403295D01*
X246335Y407860D02*
X250900Y403295D01*
X476913Y453889D02*
X486235Y444567D01*
X316954Y453889D02*
X476913D01*
X398764Y399389D02*
X415975Y416600D01*
X454878D01*
X472809Y398669D01*
X559442Y395600D02*
X563948Y391094D01*
X546400Y395600D02*
X559442D01*
X536900Y386100D02*
X546400Y395600D01*
X536900Y352536D02*
Y386100D01*
X530000Y345636D02*
X536900Y352536D01*
X500548Y345636D02*
X530000D01*
X491898Y354286D02*
X500548Y345636D01*
X379966Y297305D02*
X384871Y292400D01*
X431660D01*
X438309Y299049D01*
X407562Y344770D02*
X415930D01*
X396966Y334174D02*
X407562Y344770D01*
X396966Y307305D02*
Y334174D01*
X229835Y357860D02*
X235276Y363300D01*
X258200D01*
X288789Y393889D01*
X300454D01*
X227985Y376509D02*
X229335Y377860D01*
X221186Y376509D02*
X227985D01*
X221186Y352500D02*
Y376509D01*
Y352500D02*
X224508Y349177D01*
X254862D01*
X254985Y349300D01*
X411477Y322500D02*
Y339800D01*
Y322500D02*
X414677Y319300D01*
X484592D01*
X489936Y313956D01*
X553948Y350000D02*
Y391094D01*
X543048Y339100D02*
X553948Y350000D01*
X497084Y339100D02*
X543048D01*
X481898Y354286D02*
X497084Y339100D01*
X359346Y277305D02*
X379966D01*
X341749Y294902D02*
X359346Y277305D01*
X588500Y148000D02*
X605327Y164827D01*
X427073Y148400D02*
X492000D01*
X422544Y143871D02*
X427073Y148400D01*
X285836Y301932D02*
X290368Y297400D01*
X330600D01*
X333100Y299900D01*
X377371D01*
X379966Y297305D01*
X412544Y160871D02*
X420544Y152871D01*
X503339D01*
X207423Y318329D02*
X296439D01*
X302836Y311932D01*
X299954Y443889D02*
X304543Y439300D01*
X349100D01*
X358349Y430051D01*
Y403352D02*
Y430051D01*
X585680Y466880D02*
X602655D01*
X619118Y450417D01*
X200777Y138532D02*
X213277Y151032D01*
X225300D01*
X225800Y151532D01*
Y164994D01*
X202894Y313800D02*
X207423Y318329D01*
X168335Y313800D02*
X202894D01*
X157996Y303461D02*
X168335Y313800D01*
X659490Y391594D02*
X671850Y403954D01*
X613948Y391594D02*
X659490D01*
X207423Y278329D02*
X222911D01*
X449380Y395240D02*
X452809Y398669D01*
X422914Y395240D02*
X449380D01*
X418764Y399389D02*
X422914Y395240D01*
X402544Y160871D02*
X412544D01*
X506588Y442079D02*
X524626D01*
X504100Y444567D02*
X506588Y442079D01*
X486235Y444567D02*
X504100D01*
X541413Y439766D02*
X556078D01*
X539100Y442079D02*
X541413Y439766D01*
X524626Y442079D02*
X539100D01*
X229835Y367860D02*
X246335D01*
D19*
X486235Y444567D02*
D03*
X489936Y303956D02*
D03*
X637194Y177343D02*
D03*
X585680Y466880D02*
D03*
X556078Y439766D02*
D03*
X524626Y442079D02*
D03*
X619118Y450417D02*
D03*
X415930Y344770D02*
D03*
X341749Y304902D02*
D03*
X250953Y302020D02*
D03*
X157996Y303461D02*
D03*
D20*
X486235Y454567D02*
D03*
X489936Y323956D02*
D03*
Y313956D02*
D03*
X637194Y287343D02*
D03*
Y277343D02*
D03*
Y267343D02*
D03*
Y257343D02*
D03*
Y247343D02*
D03*
Y237343D02*
D03*
Y227343D02*
D03*
Y217343D02*
D03*
Y207343D02*
D03*
Y197343D02*
D03*
Y187343D02*
D03*
X659000Y367289D02*
D03*
X669000D02*
D03*
X661850Y403954D02*
D03*
X671850D02*
D03*
X452809Y398669D02*
D03*
X462809D02*
D03*
X585680Y456880D02*
D03*
Y446880D02*
D03*
X556078Y449766D02*
D03*
X524626Y462079D02*
D03*
Y452079D02*
D03*
X619118Y440417D02*
D03*
X408764Y399389D02*
D03*
X418764D02*
D03*
X358349Y403352D02*
D03*
X348349D02*
D03*
X415930Y334770D02*
D03*
Y324770D02*
D03*
X341749Y294902D02*
D03*
Y284902D02*
D03*
X250953Y292020D02*
D03*
Y282020D02*
D03*
X157996Y293461D02*
D03*
Y283461D02*
D03*
D21*
X300454Y393889D02*
D03*
Y403889D02*
D03*
X299954Y413889D02*
D03*
Y423889D02*
D03*
Y433889D02*
D03*
Y443889D02*
D03*
Y453889D02*
D03*
X316954Y443889D02*
D03*
Y433889D02*
D03*
Y423889D02*
D03*
Y413889D02*
D03*
Y403889D02*
D03*
Y393889D02*
D03*
X229835Y357860D02*
D03*
Y367860D02*
D03*
X229335Y377860D02*
D03*
Y387860D02*
D03*
Y397860D02*
D03*
Y407860D02*
D03*
Y417860D02*
D03*
X246335Y407860D02*
D03*
Y397860D02*
D03*
Y387860D02*
D03*
Y377860D02*
D03*
Y367860D02*
D03*
Y357860D02*
D03*
X372544Y160871D02*
D03*
X442544D02*
D03*
X432544D02*
D03*
X422544D02*
D03*
X412544D02*
D03*
X402544D02*
D03*
X392544D02*
D03*
X382544D02*
D03*
X442544Y143871D02*
D03*
X432544D02*
D03*
X422544D02*
D03*
X402544D02*
D03*
X392544D02*
D03*
X372544D02*
D03*
X382544D02*
D03*
X200777Y155532D02*
D03*
X270777D02*
D03*
X260777D02*
D03*
X250777D02*
D03*
X240777D02*
D03*
X230777D02*
D03*
X220777D02*
D03*
X210777D02*
D03*
X270777Y138532D02*
D03*
X260777D02*
D03*
X250777D02*
D03*
X230777D02*
D03*
X220777D02*
D03*
X200777D02*
D03*
X210777D02*
D03*
X613948Y391594D02*
D03*
X603948D02*
D03*
X593948Y391094D02*
D03*
X583948D02*
D03*
X573948D02*
D03*
X563948D02*
D03*
X553948D02*
D03*
X563948Y408094D02*
D03*
X573948D02*
D03*
X583948D02*
D03*
X593948D02*
D03*
X603948D02*
D03*
X613948D02*
D03*
X541898Y354786D02*
D03*
X531898D02*
D03*
X521898Y354286D02*
D03*
X511898D02*
D03*
X501898D02*
D03*
X491898D02*
D03*
X481898D02*
D03*
X491898Y371286D02*
D03*
X501898D02*
D03*
X511898D02*
D03*
X521898D02*
D03*
X531898D02*
D03*
X541898D02*
D03*
X503339Y152871D02*
D03*
X513339D02*
D03*
X523339Y153371D02*
D03*
X533339D02*
D03*
X543339D02*
D03*
X553339D02*
D03*
X563339D02*
D03*
X553339Y136371D02*
D03*
X543339D02*
D03*
X533339D02*
D03*
X523339D02*
D03*
X513339D02*
D03*
X503339D02*
D03*
X190923Y258329D02*
D03*
Y268329D02*
D03*
X190423Y278329D02*
D03*
Y288329D02*
D03*
Y298329D02*
D03*
Y308329D02*
D03*
Y318329D02*
D03*
X207423Y308329D02*
D03*
Y298329D02*
D03*
Y288329D02*
D03*
Y278329D02*
D03*
Y268329D02*
D03*
Y258329D02*
D03*
X380466Y247305D02*
D03*
Y257305D02*
D03*
X379966Y267305D02*
D03*
Y277305D02*
D03*
Y287305D02*
D03*
Y297305D02*
D03*
Y307305D02*
D03*
X396966Y297305D02*
D03*
Y287305D02*
D03*
Y277305D02*
D03*
Y267305D02*
D03*
Y257305D02*
D03*
Y247305D02*
D03*
X286336Y251932D02*
D03*
Y261932D02*
D03*
X285836Y271932D02*
D03*
Y281932D02*
D03*
Y291932D02*
D03*
Y301932D02*
D03*
Y311932D02*
D03*
X302836Y301932D02*
D03*
Y291932D02*
D03*
Y281932D02*
D03*
Y271932D02*
D03*
Y261932D02*
D03*
Y251932D02*
D03*
X438809Y249049D02*
D03*
Y259049D02*
D03*
X438309Y269049D02*
D03*
Y279049D02*
D03*
Y289049D02*
D03*
Y299049D02*
D03*
Y309049D02*
D03*
X455309Y299049D02*
D03*
Y289049D02*
D03*
Y279049D02*
D03*
Y269049D02*
D03*
Y259049D02*
D03*
Y249049D02*
D03*
X523701Y247064D02*
D03*
Y257064D02*
D03*
X523201Y267064D02*
D03*
Y277064D02*
D03*
Y287064D02*
D03*
Y297064D02*
D03*
Y307064D02*
D03*
X540201Y297064D02*
D03*
Y287064D02*
D03*
Y277064D02*
D03*
Y267064D02*
D03*
Y257064D02*
D03*
Y247064D02*
D03*
D22*
X316954Y453889D02*
D03*
X246335Y417860D02*
D03*
X207423Y318329D02*
D03*
X396966Y307305D02*
D03*
X302836Y311932D02*
D03*
X455309Y309049D02*
D03*
X540201Y307064D02*
D03*
D23*
X649000Y367289D02*
D03*
X651850Y403954D02*
D03*
X472809Y398669D02*
D03*
X398764Y399389D02*
D03*
X368349Y403352D02*
D03*
D24*
X412544Y143871D02*
D03*
X240777Y138532D02*
D03*
X553948Y408094D02*
D03*
X481898Y371286D02*
D03*
X563339Y136371D02*
D03*
D25*
X288900Y409300D02*
D03*
M02*
