G04*
G04 #@! TF.GenerationSoftware,Altium Limited,Altium Designer,18.0.7 (293)*
G04*
G04 Layer_Color=65535*
%FSLAX25Y25*%
%MOIN*%
G70*
G01*
G75*
%ADD10C,0.00787*%
%ADD11C,0.01000*%
D10*
X481235Y459567D02*
X491235D01*
Y439567D02*
Y459567D01*
X481235Y439567D02*
X491235D01*
X481235D02*
Y459567D01*
X484936Y298956D02*
X494936D01*
X484936D02*
Y328956D01*
X494936D01*
Y298956D02*
Y328956D01*
X632194Y179843D02*
Y292343D01*
Y172343D02*
Y179843D01*
Y172343D02*
X642194D01*
Y292343D01*
X632194D02*
X642194D01*
X644000Y362289D02*
X674000D01*
Y372289D01*
X644000D02*
X674000D01*
X644000Y362289D02*
Y372289D01*
X646850Y398954D02*
X676850D01*
Y408954D01*
X646850D02*
X676850D01*
X646850Y398954D02*
Y408954D01*
X477809Y393669D02*
Y403669D01*
X447809Y393669D02*
X477809D01*
X447809D02*
Y403669D01*
X477809D01*
X580680Y441880D02*
Y471880D01*
Y441880D02*
X590680D01*
Y471880D01*
X580680D02*
X590680D01*
X551078Y454766D02*
X561078D01*
Y434766D02*
Y454766D01*
X551078Y434766D02*
X561078D01*
X551078D02*
Y454766D01*
X519626Y437079D02*
Y467079D01*
Y437079D02*
X529626D01*
Y467079D01*
X519626D02*
X529626D01*
X614118Y435417D02*
X624118D01*
X614118D02*
Y455417D01*
X624118D01*
Y435417D02*
Y455417D01*
X393764Y394389D02*
X423764D01*
Y404389D01*
X393764D02*
X423764D01*
X393764Y394389D02*
Y404389D01*
X343349Y408352D02*
X373349D01*
X343349Y398352D02*
Y408352D01*
Y398352D02*
X373349D01*
Y408352D01*
X410930Y319770D02*
Y349770D01*
Y319770D02*
X420930D01*
Y349770D01*
X410930D02*
X420930D01*
X336749Y279902D02*
Y309902D01*
Y279902D02*
X346749D01*
Y309902D01*
X336749D02*
X346749D01*
X245953Y277020D02*
Y307020D01*
Y277020D02*
X255953D01*
Y307020D01*
X245953D02*
X255953D01*
X152996Y278461D02*
Y308461D01*
Y278461D02*
X162996D01*
Y308461D01*
X152996D02*
X162996D01*
D11*
X295954Y459389D02*
X320954D01*
X295954Y386889D02*
Y459389D01*
Y386889D02*
X320954D01*
Y459389D01*
X225335Y423360D02*
X250335D01*
X225335Y350860D02*
Y423360D01*
Y350860D02*
X250335D01*
Y423360D01*
X367044Y139871D02*
X449544D01*
Y164871D01*
X367044Y139871D02*
Y164871D01*
X449544D01*
X195277Y134532D02*
X277777D01*
Y159532D01*
X195277Y134532D02*
Y159532D01*
X277777D01*
X548448Y387094D02*
Y412094D01*
Y387094D02*
X620948D01*
Y412094D01*
X548448D02*
X620948D01*
X476398Y350286D02*
Y375286D01*
Y350286D02*
X548898D01*
Y375286D01*
X476398D02*
X548898D01*
X568839Y132371D02*
Y157371D01*
X496339D02*
X568839D01*
X496339Y132371D02*
Y157371D01*
Y132371D02*
X568839D01*
X186423Y323829D02*
X211423D01*
X186423Y251329D02*
Y323829D01*
Y251329D02*
X211423D01*
Y323829D01*
X375966Y312805D02*
X400966D01*
X375966Y240305D02*
Y312805D01*
Y240305D02*
X400966D01*
Y312805D01*
X281836Y317432D02*
X306836D01*
X281836Y244932D02*
Y317432D01*
Y244932D02*
X306836D01*
Y317432D01*
X434309Y314549D02*
X459309D01*
X434309Y242049D02*
Y314549D01*
Y242049D02*
X459309D01*
Y314549D01*
X519201Y312564D02*
X544201D01*
X519201Y240064D02*
Y312564D01*
Y240064D02*
X544201D01*
Y312564D01*
X485884Y469915D02*
X484884Y470915D01*
X482885D01*
X481885Y469915D01*
Y465917D01*
X482885Y464917D01*
X484884D01*
X485884Y465917D01*
X488883Y468916D02*
X490882D01*
X491882Y467916D01*
Y464917D01*
X488883D01*
X487883Y465917D01*
X488883Y466916D01*
X491882D01*
X493881Y462918D02*
Y468916D01*
X496880D01*
X497880Y467916D01*
Y465917D01*
X496880Y464917D01*
X493881D01*
X503878D02*
X499879D01*
X503878Y468916D01*
Y469915D01*
X502878Y470915D01*
X500879D01*
X499879Y469915D01*
X632826Y295776D02*
Y301774D01*
X635825D01*
X636825Y300774D01*
Y298775D01*
X635825Y297775D01*
X632826D01*
X638824Y295776D02*
X640823D01*
X639823D01*
Y301774D01*
X638824Y300774D01*
X228799Y432898D02*
X226800D01*
X225800Y431898D01*
Y427900D01*
X226800Y426900D01*
X228799D01*
X229799Y427900D01*
Y431898D01*
X228799Y432898D01*
X231798Y426900D02*
Y432898D01*
X234797D01*
X235797Y431898D01*
Y429899D01*
X234797Y428899D01*
X231798D01*
X233797D02*
X235797Y426900D01*
X241795D02*
X237796D01*
X241795Y430899D01*
Y431898D01*
X240795Y432898D01*
X238796D01*
X237796Y431898D01*
X299472Y468907D02*
X297473D01*
X296473Y467907D01*
Y463908D01*
X297473Y462909D01*
X299472D01*
X300472Y463908D01*
Y467907D01*
X299472Y468907D01*
X302471Y462909D02*
Y468907D01*
X305470D01*
X306470Y467907D01*
Y465908D01*
X305470Y464908D01*
X302471D01*
X304471D02*
X306470Y462909D01*
X308470D02*
X310469D01*
X309469D01*
Y468907D01*
X308470Y467907D01*
X548905Y421560D02*
X552904Y415562D01*
Y421560D02*
X548905Y415562D01*
X557902Y421560D02*
X555903D01*
X554903Y420561D01*
Y416562D01*
X555903Y415562D01*
X557902D01*
X558902Y416562D01*
Y420561D01*
X557902Y421560D01*
X560901Y415562D02*
Y421560D01*
X563900D01*
X564900Y420561D01*
Y418561D01*
X563900Y417561D01*
X560901D01*
X562901D02*
X564900Y415562D01*
X651449Y417329D02*
X650449Y418329D01*
X648450D01*
X647450Y417329D01*
Y416330D01*
X648450Y415330D01*
X650449D01*
X651449Y414330D01*
Y413331D01*
X650449Y412331D01*
X648450D01*
X647450Y413331D01*
X653448Y418329D02*
Y412331D01*
X656448D01*
X657447Y413331D01*
Y414330D01*
X656448Y415330D01*
X653448D01*
X656448D01*
X657447Y416330D01*
Y417329D01*
X656448Y418329D01*
X653448D01*
X648640Y380679D02*
X647640Y381678D01*
X645641D01*
X644641Y380679D01*
Y379679D01*
X645641Y378679D01*
X647640D01*
X648640Y377679D01*
Y376680D01*
X647640Y375680D01*
X645641D01*
X644641Y376680D01*
X650639Y375680D02*
Y379679D01*
X652638Y381678D01*
X654638Y379679D01*
Y375680D01*
Y378679D01*
X650639D01*
X499847Y166821D02*
X497847D01*
X496848Y165821D01*
Y161822D01*
X497847Y160822D01*
X499847D01*
X500846Y161822D01*
Y165821D01*
X499847Y166821D01*
X502846Y160822D02*
Y166821D01*
X505845D01*
X506844Y165821D01*
Y163821D01*
X505845Y162822D01*
X502846D01*
X504845D02*
X506844Y160822D01*
X476882Y378779D02*
Y382778D01*
X478882Y384777D01*
X480881Y382778D01*
Y378779D01*
Y381778D01*
X476882D01*
X482880Y378779D02*
Y384777D01*
X486879Y378779D01*
Y384777D01*
X488878D02*
Y378779D01*
X491877D01*
X492877Y379779D01*
Y383778D01*
X491877Y384777D01*
X488878D01*
X198822Y165064D02*
Y171063D01*
X195823Y168063D01*
X199821D01*
X207819Y171063D02*
Y165064D01*
X210818D01*
X211817Y166064D01*
Y167064D01*
Y168063D01*
X210818Y169063D01*
X207819D01*
X213817Y165064D02*
X215816D01*
X214816D01*
Y169063D01*
X213817D01*
X219815Y170063D02*
Y169063D01*
X218815D01*
X220814D01*
X219815D01*
Y166064D01*
X220814Y165064D01*
X223814Y168063D02*
X227812D01*
X229812Y171063D02*
Y165064D01*
X232811D01*
X233810Y166064D01*
Y167064D01*
Y168063D01*
X232811Y169063D01*
X229812D01*
X235810Y165064D02*
X237809D01*
X236809D01*
Y169063D01*
X235810D01*
X240808Y165064D02*
Y169063D01*
X243807D01*
X244807Y168063D01*
Y165064D01*
X247806Y169063D02*
X249805D01*
X250805Y168063D01*
Y165064D01*
X247806D01*
X246806Y166064D01*
X247806Y167064D01*
X250805D01*
X252804Y169063D02*
Y165064D01*
Y167064D01*
X253804Y168063D01*
X254803Y169063D01*
X255803D01*
X258802D02*
Y166064D01*
X259802Y165064D01*
X262801D01*
Y164065D01*
X261801Y163065D01*
X260802D01*
X262801Y165064D02*
Y169063D01*
X271798D02*
X273797D01*
X274797Y168063D01*
Y165064D01*
X271798D01*
X270798Y166064D01*
X271798Y167064D01*
X274797D01*
X280795Y171063D02*
Y165064D01*
X277796D01*
X276796Y166064D01*
Y168063D01*
X277796Y169063D01*
X280795D01*
X286793Y171063D02*
Y165064D01*
X283794D01*
X282794Y166064D01*
Y168063D01*
X283794Y169063D01*
X286793D01*
X291792Y165064D02*
X289792D01*
X288792Y166064D01*
Y168063D01*
X289792Y169063D01*
X291792D01*
X292791Y168063D01*
Y167064D01*
X288792D01*
X294791Y169063D02*
Y165064D01*
Y167064D01*
X295790Y168063D01*
X296790Y169063D01*
X297790D01*
X370563Y170370D02*
Y176368D01*
X367564Y173370D01*
X371563D01*
X379560Y176368D02*
Y170370D01*
X382559D01*
X383559Y171370D01*
Y172370D01*
Y173370D01*
X382559Y174369D01*
X379560D01*
X385558Y170370D02*
X387558D01*
X386558D01*
Y174369D01*
X385558D01*
X391556Y175369D02*
Y174369D01*
X390557D01*
X392556D01*
X391556D01*
Y171370D01*
X392556Y170370D01*
X395555Y173370D02*
X399554D01*
X401553Y176368D02*
Y170370D01*
X404552D01*
X405552Y171370D01*
Y172370D01*
Y173370D01*
X404552Y174369D01*
X401553D01*
X407551Y170370D02*
X409551D01*
X408551D01*
Y174369D01*
X407551D01*
X412550Y170370D02*
Y174369D01*
X415549D01*
X416548Y173370D01*
Y170370D01*
X419547Y174369D02*
X421547D01*
X422546Y173370D01*
Y170370D01*
X419547D01*
X418548Y171370D01*
X419547Y172370D01*
X422546D01*
X424546Y174369D02*
Y170370D01*
Y172370D01*
X425545Y173370D01*
X426545Y174369D01*
X427545D01*
X430544D02*
Y171370D01*
X431543Y170370D01*
X434543D01*
Y169371D01*
X433543Y168371D01*
X432543D01*
X434543Y170370D02*
Y174369D01*
X443540D02*
X445539D01*
X446539Y173370D01*
Y170370D01*
X443540D01*
X442540Y171370D01*
X443540Y172370D01*
X446539D01*
X452537Y176368D02*
Y170370D01*
X449538D01*
X448538Y171370D01*
Y173370D01*
X449538Y174369D01*
X452537D01*
X458535Y176368D02*
Y170370D01*
X455536D01*
X454536Y171370D01*
Y173370D01*
X455536Y174369D01*
X458535D01*
X463533Y170370D02*
X461534D01*
X460534Y171370D01*
Y173370D01*
X461534Y174369D01*
X463533D01*
X464533Y173370D01*
Y172370D01*
X460534D01*
X466532Y174369D02*
Y170370D01*
Y172370D01*
X467532Y173370D01*
X468532Y174369D01*
X469531D01*
X520271Y472494D02*
Y478492D01*
X523271D01*
X524270Y477492D01*
Y475493D01*
X523271Y474493D01*
X520271D01*
X522271D02*
X524270Y472494D01*
X529269D02*
X527269D01*
X526270Y473493D01*
Y475493D01*
X527269Y476493D01*
X529269D01*
X530268Y475493D01*
Y474493D01*
X526270D01*
X534267Y470495D02*
X535267D01*
X536266Y471494D01*
Y476493D01*
X533267D01*
X532268Y475493D01*
Y473493D01*
X533267Y472494D01*
X536266D01*
X538266Y476493D02*
Y473493D01*
X539265Y472494D01*
X542264D01*
Y476493D01*
X544264Y472494D02*
X546263D01*
X545263D01*
Y478492D01*
X544264D01*
X550262Y476493D02*
X552261D01*
X553261Y475493D01*
Y472494D01*
X550262D01*
X549262Y473493D01*
X550262Y474493D01*
X553261D01*
X556260Y477492D02*
Y476493D01*
X555260D01*
X557260D01*
X556260D01*
Y473493D01*
X557260Y472494D01*
X561258D02*
X563258D01*
X564257Y473493D01*
Y475493D01*
X563258Y476493D01*
X561258D01*
X560259Y475493D01*
Y473493D01*
X561258Y472494D01*
X566257Y476493D02*
Y472494D01*
Y474493D01*
X567256Y475493D01*
X568256Y476493D01*
X569256D01*
X572255Y472494D02*
X574254D01*
X573254D01*
Y478492D01*
X572255Y477492D01*
X581280Y475280D02*
Y481278D01*
X584279D01*
X585279Y480278D01*
Y478279D01*
X584279Y477279D01*
X581280D01*
X588278Y475280D02*
X590277D01*
X591277Y476279D01*
Y478279D01*
X590277Y479278D01*
X588278D01*
X587278Y478279D01*
Y476279D01*
X588278Y475280D01*
X593277Y479278D02*
Y476279D01*
X594276Y475280D01*
X595276Y476279D01*
X596276Y475280D01*
X597275Y476279D01*
Y479278D01*
X602274Y475280D02*
X600274D01*
X599274Y476279D01*
Y478279D01*
X600274Y479278D01*
X602274D01*
X603273Y478279D01*
Y477279D01*
X599274D01*
X605273Y479278D02*
Y475280D01*
Y477279D01*
X606272Y478279D01*
X607272Y479278D01*
X608272D01*
X621267Y480278D02*
X620268Y481278D01*
X618268D01*
X617269Y480278D01*
Y479278D01*
X618268Y478279D01*
X620268D01*
X621267Y477279D01*
Y476279D01*
X620268Y475280D01*
X618268D01*
X617269Y476279D01*
X623267Y479278D02*
Y476279D01*
X624266Y475280D01*
X625266Y476279D01*
X626266Y475280D01*
X627266Y476279D01*
Y479278D01*
X629265Y475280D02*
X631264D01*
X630265D01*
Y479278D01*
X629265D01*
X635263Y480278D02*
Y479278D01*
X634263D01*
X636263D01*
X635263D01*
Y476279D01*
X636263Y475280D01*
X643260Y479278D02*
X640261D01*
X639262Y478279D01*
Y476279D01*
X640261Y475280D01*
X643260D01*
X645260Y481278D02*
Y475280D01*
Y478279D01*
X646259Y479278D01*
X648259D01*
X649258Y478279D01*
Y475280D01*
X651258D02*
X653257D01*
X652257D01*
Y481278D01*
X651258Y480278D01*
X614713Y458859D02*
Y464857D01*
X617712D01*
X618712Y463857D01*
Y461858D01*
X617712Y460858D01*
X614713D01*
X621711Y458859D02*
X623710D01*
X624710Y459859D01*
Y461858D01*
X623710Y462858D01*
X621711D01*
X620711Y461858D01*
Y459859D01*
X621711Y458859D01*
X626709Y462858D02*
Y459859D01*
X627709Y458859D01*
X628709Y459859D01*
X629708Y458859D01*
X630708Y459859D01*
Y462858D01*
X635706Y458859D02*
X633707D01*
X632707Y459859D01*
Y461858D01*
X633707Y462858D01*
X635706D01*
X636706Y461858D01*
Y460858D01*
X632707D01*
X638705Y462858D02*
Y458859D01*
Y460858D01*
X639705Y461858D01*
X640705Y462858D01*
X641704D01*
X650701Y458859D02*
X653700D01*
X654700Y459859D01*
X653700Y460858D01*
X651701D01*
X650701Y461858D01*
X651701Y462858D01*
X654700D01*
X657699Y458859D02*
X659698D01*
X660698Y459859D01*
Y461858D01*
X659698Y462858D01*
X657699D01*
X656700Y461858D01*
Y459859D01*
X657699Y458859D01*
X662698Y462858D02*
Y459859D01*
X663697Y458859D01*
X666696D01*
Y462858D01*
X668696D02*
Y458859D01*
Y460858D01*
X669695Y461858D01*
X670695Y462858D01*
X671695D01*
X678692D02*
X675693D01*
X674694Y461858D01*
Y459859D01*
X675693Y458859D01*
X678692D01*
X683691D02*
X681691D01*
X680692Y459859D01*
Y461858D01*
X681691Y462858D01*
X683691D01*
X684690Y461858D01*
Y460858D01*
X680692D01*
X686690Y458859D02*
X688689D01*
X687689D01*
Y464857D01*
X686690Y463857D01*
X448409Y413066D02*
Y407068D01*
X451408D01*
X452408Y408068D01*
Y409068D01*
X451408Y410068D01*
X448409D01*
X451408D01*
X452408Y411067D01*
Y412067D01*
X451408Y413066D01*
X448409D01*
X458406D02*
X454407D01*
Y410068D01*
X456407D01*
X454407D01*
Y407068D01*
X460405Y412067D02*
X461405Y413066D01*
X463404D01*
X464404Y412067D01*
Y408068D01*
X463404Y407068D01*
X461405D01*
X460405Y408068D01*
Y412067D01*
X394364Y413787D02*
Y407789D01*
X397363D01*
X398363Y408789D01*
Y409789D01*
X397363Y410788D01*
X394364D01*
X397363D01*
X398363Y411788D01*
Y412788D01*
X397363Y413787D01*
X394364D01*
X400362Y412788D02*
X401362Y413787D01*
X403362D01*
X404361Y412788D01*
Y408789D01*
X403362Y407789D01*
X401362D01*
X400362Y408789D01*
Y412788D01*
X343949Y417750D02*
Y411752D01*
X346948D01*
X347948Y412752D01*
Y413752D01*
X346948Y414751D01*
X343949D01*
X346948D01*
X347948Y415751D01*
Y416751D01*
X346948Y417750D01*
X343949D01*
X349947Y411752D02*
X351946D01*
X350947D01*
Y417750D01*
X349947Y416751D01*
X485494Y332381D02*
Y336380D01*
X487493Y338379D01*
X489493Y336380D01*
Y332381D01*
Y335380D01*
X485494D01*
X495491Y338379D02*
X491492D01*
Y335380D01*
X493491D01*
X491492D01*
Y332381D01*
X497490D02*
X499489D01*
X498490D01*
Y338379D01*
X497490Y337380D01*
X411530Y353170D02*
Y357169D01*
X413529Y359168D01*
X415528Y357169D01*
Y353170D01*
Y356169D01*
X411530D01*
X421527Y359168D02*
X417528D01*
Y356169D01*
X419527D01*
X417528D01*
Y353170D01*
X423526Y358169D02*
X424526Y359168D01*
X426525D01*
X427525Y358169D01*
Y354170D01*
X426525Y353170D01*
X424526D01*
X423526Y354170D01*
Y358169D01*
X337349Y313302D02*
Y317301D01*
X339348Y319300D01*
X341347Y317301D01*
Y313302D01*
Y316301D01*
X337349D01*
X343347Y318301D02*
X344346Y319300D01*
X346346D01*
X347345Y318301D01*
Y314302D01*
X346346Y313302D01*
X344346D01*
X343347Y314302D01*
Y318301D01*
X246553Y310420D02*
Y314419D01*
X248553Y316418D01*
X250552Y314419D01*
Y310420D01*
Y313419D01*
X246553D01*
X252551Y310420D02*
X254551D01*
X253551D01*
Y316418D01*
X252551Y315418D01*
X153596Y311861D02*
Y315860D01*
X155595Y317859D01*
X157595Y315860D01*
Y311861D01*
Y314860D01*
X153596D01*
X163593Y311861D02*
X159594D01*
X163593Y315860D01*
Y316860D01*
X162593Y317859D01*
X160594D01*
X159594Y316860D01*
X555701Y465174D02*
X554702Y466173D01*
X552702D01*
X551702Y465174D01*
Y461175D01*
X552702Y460175D01*
X554702D01*
X555701Y461175D01*
X558700Y464174D02*
X560700D01*
X561699Y463174D01*
Y460175D01*
X558700D01*
X557701Y461175D01*
X558700Y462175D01*
X561699D01*
X563699Y458176D02*
Y464174D01*
X566698D01*
X567697Y463174D01*
Y461175D01*
X566698Y460175D01*
X563699D01*
X569697D02*
X571696D01*
X570696D01*
Y466173D01*
X569697Y465174D01*
X519701Y316064D02*
Y320063D01*
X521700Y322062D01*
X523699Y320063D01*
Y316064D01*
Y319063D01*
X519701D01*
X529698Y322062D02*
X525699D01*
Y319063D01*
X527698D01*
X525699D01*
Y316064D01*
X531697D02*
X533696D01*
X532696D01*
Y322062D01*
X531697Y321063D01*
X434809Y318049D02*
Y322048D01*
X436808Y324047D01*
X438807Y322048D01*
Y318049D01*
Y321048D01*
X434809D01*
X444806Y324047D02*
X440807D01*
Y321048D01*
X442806D01*
X440807D01*
Y318049D01*
X446805Y323047D02*
X447805Y324047D01*
X449804D01*
X450804Y323047D01*
Y319049D01*
X449804Y318049D01*
X447805D01*
X446805Y319049D01*
Y323047D01*
X376466Y316305D02*
Y320304D01*
X378465Y322303D01*
X380465Y320304D01*
Y316305D01*
Y319304D01*
X376466D01*
X382464Y321303D02*
X383464Y322303D01*
X385463D01*
X386463Y321303D01*
Y317305D01*
X385463Y316305D01*
X383464D01*
X382464Y317305D01*
Y321303D01*
X282330Y320963D02*
Y324962D01*
X284329Y326961D01*
X286328Y324962D01*
Y320963D01*
Y323962D01*
X282330D01*
X288328Y320963D02*
X290327D01*
X289327D01*
Y326961D01*
X288328Y325962D01*
X186923Y327329D02*
Y331327D01*
X188922Y333327D01*
X190922Y331327D01*
Y327329D01*
Y330328D01*
X186923D01*
X196920Y327329D02*
X192921D01*
X196920Y331327D01*
Y332327D01*
X195920Y333327D01*
X193921D01*
X192921Y332327D01*
M02*
