%FSTAX23Y23*%
%MOIN*%
%SFA1B1*%

%IPPOS*%
%ADD10C,0.005000*%
%ADD11C,0.007870*%
%ADD12C,0.010000*%
%LNpcb1-1*%
%LPD*%
G54D10*
X05705Y04305D02*
D01*
X05705Y04298*
X05705Y04291*
X05707Y04285*
X05708Y04278*
X0571Y04272*
X05713Y04266*
X05716Y0426*
X05719Y04254*
X05723Y04249*
X05727Y04243*
X05731Y04239*
X05736Y04234*
X05741Y0423*
X05746Y04226*
X05752Y04222*
X05758Y04219*
X05764Y04216*
X0577Y04214*
X05777Y04212*
X05783Y04211*
X0579Y0421*
X05796Y0421*
X05803*
X05809Y0421*
X05816Y04211*
X05822Y04212*
X05829Y04214*
X05835Y04216*
X05841Y04219*
X05847Y04222*
X05853Y04226*
X05858Y0423*
X05863Y04234*
X05868Y04239*
X05872Y04243*
X05876Y04249*
X0588Y04254*
X05883Y0426*
X05886Y04266*
X05889Y04272*
X05891Y04278*
X05892Y04285*
X05894Y04291*
X05894Y04298*
X05895Y04305*
X0082Y03425D02*
D01*
X00813Y03424*
X00806Y03424*
X008Y03422*
X00793Y03421*
X00787Y03419*
X00781Y03416*
X00775Y03413*
X00769Y0341*
X00764Y03406*
X00758Y03402*
X00754Y03398*
X00749Y03393*
X00745Y03388*
X00741Y03383*
X00737Y03377*
X00734Y03371*
X00731Y03365*
X00729Y03359*
X00727Y03352*
X00726Y03346*
X00725Y03339*
X00725Y03333*
Y03326*
X00725Y0332*
X00726Y03313*
X00727Y03307*
X00729Y033*
X00731Y03294*
X00734Y03288*
X00737Y03282*
X00741Y03276*
X00745Y03271*
X00749Y03266*
X00754Y03261*
X00758Y03257*
X00764Y03253*
X00769Y03249*
X00775Y03246*
X00781Y03243*
X00787Y0324*
X00793Y03238*
X008Y03237*
X00806Y03235*
X00813Y03235*
X0082Y03235*
X0568Y04405D02*
Y0476D01*
Y04405D02*
X0592D01*
Y0476*
X05705Y04305D02*
Y04405D01*
X05895Y04305D02*
Y04405D01*
X0568Y0476D02*
X05725D01*
Y0466D02*
Y0476D01*
Y0466D02*
X05875D01*
Y0476*
X0592*
X0092Y0345D02*
X01275D01*
X0092Y0321D02*
Y0345D01*
Y0321D02*
X01275D01*
X0082Y03425D02*
X0092D01*
X0082Y03235D02*
X0092D01*
X01275Y03405D02*
Y0345D01*
X01175Y03405D02*
X01275D01*
X01175Y03255D02*
Y03405D01*
Y03255D02*
X01275D01*
Y0321D02*
Y03255D01*
G54D11*
X01795Y0461D02*
X01865D01*
X01265D02*
X01335D01*
Y0453D02*
Y0469D01*
Y0453D02*
X01795D01*
Y0469*
X01335D02*
X01795D01*
X022Y018D02*
Y0187D01*
Y0233D02*
Y024D01*
X0212Y0233D02*
X0228D01*
X0212Y0187D02*
Y0233D01*
Y0187D02*
X0228D01*
Y0233*
X06575Y02915D02*
X06675D01*
X06575D02*
Y03315D01*
X06675Y02915D02*
Y03315D01*
X06575D02*
X06675D01*
X01265Y01965D02*
Y02265D01*
X01165D02*
X01265D01*
X01165Y01965D02*
Y02265D01*
Y01965D02*
X01265D01*
X0224Y0337D02*
X0254D01*
X0224Y0327D02*
Y0337D01*
Y0327D02*
X0254D01*
Y0337*
X06735Y0417D02*
X06835D01*
Y0367D02*
Y0417D01*
X06735Y0367D02*
Y0417D01*
Y0367D02*
X06835D01*
G54D12*
X03599Y0178D02*
X0419D01*
Y013D02*
Y0178D01*
X036Y013D02*
X0419D01*
X036D02*
Y0178D01*
X02544Y01825D02*
X03135D01*
Y01345D02*
Y01825D01*
X02545Y01345D02*
X03135D01*
X02545D02*
Y01825D01*
X01469Y01605D02*
X0206D01*
Y01125D02*
Y01605D01*
X0147Y01125D02*
X0206D01*
X0147D02*
Y01605D01*
X02595Y0198D02*
Y02805D01*
Y0198D02*
X02845D01*
X02595Y02805D02*
X02845D01*
Y0198D02*
Y02805D01*
X03615Y01935D02*
Y0276D01*
Y01935D02*
X03865D01*
X03615Y0276D02*
X03865D01*
Y01935D02*
Y0276D01*
X0148Y01845D02*
Y0267D01*
Y01845D02*
X0173D01*
X0148Y0267D02*
X0173D01*
Y01845D02*
Y0267D01*
X0226Y0427D02*
X0251D01*
X0226Y03545D02*
Y0427D01*
Y03545D02*
X0251D01*
Y0427*
X048Y0447D02*
Y0472D01*
X04075D02*
X048D01*
X04075Y0447D02*
Y0472D01*
Y0447D02*
X048D01*
X03095Y04605D02*
X03345D01*
X03095Y0388D02*
Y04605D01*
Y0388D02*
X03345D01*
Y04605*
X0471Y0427D02*
X0496D01*
X0471Y03545D02*
Y0427D01*
Y03545D02*
X0496D01*
Y0427*
X0567Y02285D02*
X0592D01*
X0567Y0156D02*
Y02285D01*
Y0156D02*
X0592D01*
Y02285*
X0442Y0271D02*
X0467D01*
X0442Y01985D02*
Y0271D01*
Y01985D02*
X0467D01*
Y0271*
X01345Y04355D02*
X01595D01*
X01345Y0363D02*
Y04355D01*
Y0363D02*
X01595D01*
Y04355*
X05015Y0237D02*
X05265D01*
X05015Y01645D02*
Y0237D01*
Y01645D02*
X05265D01*
Y0237*
X0559Y02555D02*
Y02805D01*
Y02555D02*
X06315D01*
Y02805*
X0559D02*
X06315D01*
X0587Y03125D02*
X0612D01*
Y0385*
X0587D02*
X0612D01*
X0587Y03125D02*
Y0385D01*
X04435Y0306D02*
Y0331D01*
X0371D02*
X04435D01*
X0371Y0306D02*
Y0331D01*
Y0306D02*
X04435D01*
X02915Y02925D02*
X03165D01*
Y0365*
X02915D02*
X03165D01*
X02915Y02925D02*
Y0365D01*
X0532Y0377D02*
X0557D01*
Y04495*
X0532D02*
X0557D01*
X0532Y0377D02*
Y04495D01*
X02126Y02512D02*
Y02571D01*
X02155*
X02165Y02561*
Y02541*
X02155Y02531*
X02126*
X02145D02*
X02165Y02512D01*
X02225D02*
X02185D01*
X02225Y02551*
Y02561*
X02215Y02571*
X02195*
X02185Y02561*
X01193Y04724D02*
Y04783D01*
X01222*
X01232Y04773*
Y04753*
X01222Y04743*
X01193*
X01212D02*
X01232Y04724D01*
X01252D02*
X01272D01*
X01262*
Y04783*
X01252Y04773*
X02521Y01939D02*
X0256D01*
Y01929*
X02521Y0189*
Y0188*
X0264D02*
X0267D01*
X0268Y0189*
X0267Y01899*
X0265*
X0264Y01909*
X0265Y01919*
X0268*
X0273Y0188D02*
X0271D01*
X027Y0189*
Y01909*
X0271Y01919*
X0273*
X0274Y01909*
Y01899*
X027*
X0278Y0186D02*
X0279D01*
X028Y0187*
Y01919*
X0277*
X0276Y01909*
Y0189*
X0277Y0188*
X028*
X0282D02*
Y01919D01*
X0283*
X0284Y01909*
Y0188*
Y01909*
X0285Y01919*
X0286Y01909*
Y0188*
X0291D02*
X0289D01*
X0288Y0189*
Y01909*
X0289Y01919*
X0291*
X0292Y01909*
Y01899*
X0288*
X0294Y0188D02*
Y01919D01*
X0297*
X0298Y01909*
Y0188*
X0301Y01929D02*
Y01919D01*
X03*
X0302*
X0301*
Y0189*
X0302Y0188*
X0311Y01919D02*
Y0189D01*
X0312Y0188*
X0315*
Y01919*
X0317Y0188D02*
Y01919D01*
X032*
X0321Y01909*
Y0188*
X0323D02*
X0325D01*
X0324*
Y01919*
X0323*
X0329Y01929D02*
Y01919D01*
X0328*
X033*
X0329*
Y0189*
X033Y0188*
X0333D02*
X0336D01*
X0337Y0189*
X0336Y01899*
X0334*
X0333Y01909*
X0334Y01919*
X0337*
X01446Y01719D02*
X01485D01*
Y01709*
X01446Y0167*
Y0166*
X01565D02*
X01595D01*
X01605Y0167*
X01595Y01679*
X01575*
X01565Y01689*
X01575Y01699*
X01605*
X01655Y0166D02*
X01635D01*
X01625Y0167*
Y01689*
X01635Y01699*
X01655*
X01665Y01689*
Y01679*
X01625*
X01705Y0164D02*
X01715D01*
X01725Y0165*
Y01699*
X01695*
X01685Y01689*
Y0167*
X01695Y0166*
X01725*
X01745D02*
Y01699D01*
X01755*
X01765Y01689*
Y0166*
Y01689*
X01775Y01699*
X01785Y01689*
Y0166*
X01835D02*
X01815D01*
X01805Y0167*
Y01689*
X01815Y01699*
X01835*
X01845Y01689*
Y01679*
X01805*
X01865Y0166D02*
Y01699D01*
X01895*
X01905Y01689*
Y0166*
X01935Y01709D02*
Y01699D01*
X01925*
X01945*
X01935*
Y0167*
X01945Y0166*
X02045Y01709D02*
Y01699D01*
X02035*
X02055*
X02045*
Y0167*
X02055Y0166*
X02115D02*
X02095D01*
X02085Y0167*
Y01689*
X02095Y01699*
X02115*
X02125Y01689*
Y01679*
X02085*
X02145Y0166D02*
Y01699D01*
X02175*
X02185Y01689*
Y0166*
X02205D02*
X02235D01*
X02245Y0167*
X02235Y01679*
X02215*
X02205Y01689*
X02215Y01699*
X02245*
X03576Y01894D02*
X03615D01*
Y01884*
X03576Y01845*
Y01835*
X03695D02*
X03725D01*
X03735Y01845*
X03725Y01854*
X03705*
X03695Y01864*
X03705Y01874*
X03735*
X03785Y01835D02*
X03765D01*
X03755Y01845*
Y01864*
X03765Y01874*
X03785*
X03795Y01864*
Y01854*
X03755*
X03835Y01815D02*
X03845D01*
X03855Y01825*
Y01874*
X03825*
X03815Y01864*
Y01845*
X03825Y01835*
X03855*
X03875D02*
Y01874D01*
X03885*
X03895Y01864*
Y01835*
Y01864*
X03905Y01874*
X03915Y01864*
Y01835*
X03965D02*
X03945D01*
X03935Y01845*
Y01864*
X03945Y01874*
X03965*
X03975Y01864*
Y01854*
X03935*
X03995Y01835D02*
Y01874D01*
X04025*
X04035Y01864*
Y01835*
X04065Y01884D02*
Y01874D01*
X04055*
X04075*
X04065*
Y01845*
X04075Y01835*
X04175D02*
Y01884D01*
Y01864*
X04165*
X04185*
X04175*
Y01884*
X04185Y01894*
X04215Y01874D02*
Y01835D01*
Y01854*
X04225Y01864*
X04235Y01874*
X04245*
X04285D02*
X04305D01*
X04315Y01864*
Y01835*
X04285*
X04275Y01845*
X04285Y01854*
X04315*
X04375Y01874D02*
X04345D01*
X04335Y01864*
Y01845*
X04345Y01835*
X04375*
X04405Y01884D02*
Y01874D01*
X04395*
X04415*
X04405*
Y01845*
X04415Y01835*
X04445D02*
X04465D01*
X04455*
Y01874*
X04445*
X04505Y01835D02*
X04525D01*
X04535Y01845*
Y01864*
X04525Y01874*
X04505*
X04495Y01864*
Y01845*
X04505Y01835*
X04555D02*
Y01874D01*
X04585*
X04595Y01864*
Y01835*
X02599Y029D02*
Y0285D01*
X02609Y0284*
X02629*
X02639Y0285*
Y029*
X02659Y0284D02*
Y0288D01*
X02689*
X02699Y0287*
Y0284*
X02719D02*
X02739D01*
X02729*
Y0288*
X02719*
X02779Y0289D02*
Y0288D01*
X02769*
X02789*
X02779*
Y0285*
X02789Y0284*
X02819D02*
X02849D01*
X02859Y0285*
X02849Y0286*
X02829*
X02819Y0287*
X02829Y0288*
X02859*
X01484Y02765D02*
X01524D01*
X01504*
Y02705*
X01574D02*
X01554D01*
X01544Y02715*
Y02735*
X01554Y02745*
X01574*
X01584Y02735*
Y02725*
X01544*
X01604Y02705D02*
Y02745D01*
X01634*
X01644Y02735*
Y02705*
X01664D02*
X01694D01*
X01704Y02715*
X01694Y02725*
X01674*
X01664Y02735*
X01674Y02745*
X01704*
X01171Y02299D02*
Y02358D01*
X012*
X0121Y02348*
Y02328*
X012Y02318*
X01171*
X0119D02*
X0121Y02299D01*
X0123D02*
Y02358D01*
X0126*
X0127Y02348*
Y02328*
X0126Y02318*
X0123*
X0129Y02358D02*
X0131D01*
X013*
Y02299*
X0129*
X0131*
X03659Y02855D02*
X03619D01*
Y02825*
X03639*
X03619*
Y02795*
X03679Y02835D02*
Y02795D01*
Y02815*
X03689Y02825*
X03699Y02835*
X03709*
X03749D02*
X03769D01*
X03779Y02825*
Y02795*
X03749*
X03739Y02805*
X03749Y02815*
X03779*
X03839Y02835D02*
X03809D01*
X03799Y02825*
Y02805*
X03809Y02795*
X03839*
X03869Y02845D02*
Y02835D01*
X03859*
X03879*
X03869*
Y02805*
X03879Y02795*
X03909D02*
X03929D01*
X03919*
Y02835*
X03909*
X03969Y02795D02*
X03989D01*
X03999Y02805*
Y02825*
X03989Y02835*
X03969*
X03959Y02825*
Y02805*
X03969Y02795*
X04019D02*
Y02835D01*
X04049*
X04059Y02825*
Y02795*
X0662Y03408D02*
X06581D01*
Y03378*
X066*
X06581*
Y03349*
X0664Y03388D02*
Y03349D01*
Y03368*
X0665Y03378*
X0666Y03388*
X0667*
X0671D02*
X0673D01*
X0674Y03378*
Y03349*
X0671*
X067Y03359*
X0671Y03368*
X0674*
X068Y03388D02*
X0677D01*
X0676Y03378*
Y03359*
X0677Y03349*
X068*
X0683Y03398D02*
Y03388D01*
X0682*
X0684*
X0683*
Y03359*
X0684Y03349*
X0687D02*
X0689D01*
X0688*
Y03388*
X0687*
X0693Y03349D02*
X0695D01*
X0696Y03359*
Y03378*
X0695Y03388*
X0693*
X0692Y03378*
Y03359*
X0693Y03349*
X0698D02*
Y03388D01*
X0701*
X0702Y03378*
Y03349*
X071Y03408D02*
X0712D01*
X0711*
Y03349*
X071*
X0712*
X0715D02*
Y03388D01*
X0718*
X0719Y03378*
Y03349*
X00771Y03551D02*
X00761Y03561D01*
X00742*
X00732Y03551*
Y03541*
X00742Y03531*
X00761*
X00771Y03521*
Y03512*
X00761Y03502*
X00742*
X00732Y03512*
X00791Y03502D02*
X00811D01*
X00801*
Y03541*
X00791*
X00861Y03482D02*
X00871D01*
X00881Y03492*
Y03541*
X00851*
X00841Y03531*
Y03512*
X00851Y03502*
X00881*
X00901D02*
Y03541D01*
X00931*
X00941Y03531*
Y03502*
X01031D02*
Y03551D01*
Y03531*
X01021*
X01041*
X01031*
Y03551*
X01041Y03561*
X01071Y03502D02*
X01091D01*
X01081*
Y03561*
X01071*
X01131Y03541D02*
X01151D01*
X01161Y03531*
Y03502*
X01131*
X01121Y03512*
X01131Y03521*
X01161*
X01201Y03482D02*
X01211D01*
X01221Y03492*
Y03541*
X01191*
X01181Y03531*
Y03512*
X01191Y03502*
X01221*
X05688Y04871D02*
X05727D01*
Y04861*
X05688Y04822*
Y04812*
X05727*
X05777D02*
X05757D01*
X05747Y04822*
Y04841*
X05757Y04851*
X05777*
X05787Y04841*
Y04831*
X05747*
X05807Y04851D02*
Y04812D01*
Y04831*
X05817Y04841*
X05827Y04851*
X05837*
X05877Y04812D02*
X05897D01*
X05907Y04822*
Y04841*
X05897Y04851*
X05877*
X05867Y04841*
Y04822*
X05877Y04812*
X05997D02*
Y04861D01*
Y04841*
X05987*
X06007*
X05997*
Y04861*
X06007Y04871*
X06037Y04812D02*
X06057D01*
X06047*
Y04871*
X06037*
X06097Y04851D02*
X06117D01*
X06127Y04841*
Y04812*
X06097*
X06087Y04822*
X06097Y04831*
X06127*
X06167Y04792D02*
X06177D01*
X06187Y04802*
Y04851*
X06157*
X06147Y04841*
Y04822*
X06157Y04812*
X06187*
X05049Y02465D02*
X05029D01*
X05019Y02455*
Y02415*
X05029Y02405*
X05049*
X05059Y02415*
Y02455*
X05049Y02465*
X05079Y02405D02*
Y02465D01*
X05109*
X05119Y02455*
Y02435*
X05109Y02425*
X05079*
X05099D02*
X05119Y02405D01*
X05139Y02455D02*
X05149Y02465D01*
X05169*
X05179Y02455*
Y02445*
X05169Y02435*
X05159*
X05169*
X05179Y02425*
Y02415*
X05169Y02405*
X05149*
X05139Y02415*
X01379Y0445D02*
X01359D01*
X01349Y0444*
Y044*
X01359Y0439*
X01379*
X01389Y044*
Y0444*
X01379Y0445*
X01409Y0439D02*
Y0445D01*
X01439*
X01449Y0444*
Y0442*
X01439Y0441*
X01409*
X01429D02*
X01449Y0439D01*
X01509D02*
X01469D01*
X01509Y0443*
Y0444*
X01499Y0445*
X01479*
X01469Y0444*
X02264Y04305D02*
Y04365D01*
X02304Y04305*
Y04365*
X02354D02*
X02334D01*
X02324Y04355*
Y04315*
X02334Y04305*
X02354*
X02364Y04315*
Y04355*
X02354Y04365*
X02384D02*
X02424D01*
X02404*
Y04305*
X02484D02*
X02444D01*
X02484Y04345*
Y04355*
X02474Y04365*
X02454*
X02444Y04355*
X06741Y04283D02*
X0676D01*
X06751*
Y04224*
X06741*
X0676*
X0679D02*
Y04263D01*
X0682*
X0683Y04253*
Y04224*
X0686Y04273D02*
Y04263D01*
X0685*
X0687*
X0686*
Y04234*
X0687Y04224*
X0693D02*
X0691D01*
X069Y04234*
Y04253*
X0691Y04263*
X0693*
X0694Y04253*
Y04243*
X069*
X0698Y04204D02*
X0699D01*
X07Y04214*
Y04263*
X0697*
X0696Y04253*
Y04234*
X0697Y04224*
X07*
X0705D02*
X0703D01*
X0702Y04234*
Y04253*
X0703Y04263*
X0705*
X0706Y04253*
Y04243*
X0702*
X0708Y04263D02*
Y04224D01*
Y04243*
X0709Y04253*
X071Y04263*
X0711*
X072Y04224D02*
X0722D01*
X0721*
Y04263*
X072*
X0725Y04224D02*
Y04263D01*
X0728*
X0729Y04253*
Y04224*
X04424Y02745D02*
Y02785D01*
X04444Y02805*
X04464Y02785*
Y02745*
Y02775*
X04424*
X04484Y02745D02*
Y02805D01*
X04524Y02745*
Y02805*
X04544D02*
Y02745D01*
X04574*
X04584Y02755*
Y02795*
X04574Y02805*
X04544*
X04604D02*
X04644D01*
Y02795*
X04604Y02755*
Y02745*
X05674Y0232D02*
Y0236D01*
X05694Y0238*
X05714Y0236*
Y0232*
Y0235*
X05674*
X05734Y0232D02*
Y0238D01*
X05774Y0232*
Y0238*
X05794D02*
Y0232D01*
X05824*
X05834Y0233*
Y0237*
X05824Y0238*
X05794*
X05894D02*
X05874Y0237D01*
X05854Y0235*
Y0233*
X05864Y0232*
X05884*
X05894Y0233*
Y0234*
X05884Y0235*
X05854*
X031Y0464D02*
Y04679D01*
X03119Y04699*
X03139Y04679*
Y0464*
Y04669*
X031*
X03159Y0464D02*
Y04699D01*
X03199Y0464*
Y04699*
X03219D02*
Y0464D01*
X03249*
X03259Y0465*
Y04689*
X03249Y04699*
X03219*
X03319D02*
X03279D01*
Y04669*
X03299Y04679*
X03309*
X03319Y04669*
Y0465*
X03309Y0464*
X03289*
X03279Y0465*
X04714Y04305D02*
Y04345D01*
X04734Y04365*
X04754Y04345*
Y04305*
Y04335*
X04714*
X04774Y04305D02*
Y04365D01*
X04814Y04305*
Y04365*
X04834D02*
Y04305D01*
X04864*
X04874Y04315*
Y04355*
X04864Y04365*
X04834*
X04924Y04305D02*
Y04365D01*
X04894Y04335*
X04934*
X0408Y04755D02*
Y04794D01*
X04099Y04814*
X04119Y04794*
Y04755*
Y04784*
X0408*
X04139Y04755D02*
Y04814D01*
X04179Y04755*
Y04814*
X04199D02*
Y04755D01*
X04229*
X04239Y04765*
Y04804*
X04229Y04814*
X04199*
X04259Y04804D02*
X04269Y04814D01*
X04289*
X04299Y04804*
Y04794*
X04289Y04784*
X04279*
X04289*
X04299Y04774*
Y04765*
X04289Y04755*
X04269*
X04259Y04765*
X05325Y04589D02*
X05364Y0453D01*
Y04589D02*
X05325Y0453D01*
X05414Y04589D02*
X05394D01*
X05384Y04579*
Y0454*
X05394Y0453*
X05414*
X05424Y0454*
Y04579*
X05414Y04589*
X05444Y0453D02*
Y04589D01*
X05474*
X05484Y04579*
Y04559*
X05474Y04549*
X05444*
X05464D02*
X05484Y0453D01*
X05504D02*
X05524D01*
X05514*
Y04589*
X05504Y04579*
X02246Y03404D02*
Y03463D01*
X02275*
X02285Y03453*
Y03433*
X02275Y03423*
X02246*
X02315Y03404D02*
X02335D01*
X02345Y03414*
Y03433*
X02335Y03443*
X02315*
X02305Y03433*
Y03414*
X02315Y03404*
X02365Y03443D02*
Y03414D01*
X02375Y03404*
X02385Y03414*
X02395Y03404*
X02405Y03414*
Y03443*
X02455Y03404D02*
X02435D01*
X02425Y03414*
Y03433*
X02435Y03443*
X02455*
X02465Y03433*
Y03423*
X02425*
X02485Y03443D02*
Y03404D01*
Y03423*
X02495Y03433*
X02505Y03443*
X02515*
X02949Y03744D02*
X0293D01*
X0292Y03734*
Y03695*
X0293Y03685*
X02949*
X02959Y03695*
Y03734*
X02949Y03744*
X02979Y03685D02*
Y03744D01*
X03009*
X03019Y03734*
Y03714*
X03009Y03704*
X02979*
X02999D02*
X03019Y03685D01*
X03039D02*
X03059D01*
X03049*
Y03744*
X03039Y03734*
X05875Y03885D02*
Y03944D01*
X05914Y03885*
Y03944*
X05964D02*
X05944D01*
X05934Y03934*
Y03895*
X05944Y03885*
X05964*
X05974Y03895*
Y03934*
X05964Y03944*
X05994D02*
X06034D01*
X06014*
Y03885*
X06054D02*
X06074D01*
X06064*
Y03944*
X06054Y03934*
X03715Y03345D02*
Y03384D01*
X03734Y03404*
X03754Y03384*
Y03345*
Y03374*
X03715*
X03774Y03345D02*
Y03404D01*
X03814Y03345*
Y03404*
X03834D02*
Y03345D01*
X03864*
X03874Y03355*
Y03394*
X03864Y03404*
X03834*
X03934Y03345D02*
X03894D01*
X03934Y03384*
Y03394*
X03924Y03404*
X03904*
X03894Y03394*
X05595Y0284D02*
Y02879D01*
X05614Y02899*
X05634Y02879*
Y0284*
Y02869*
X05595*
X05654Y0284D02*
Y02899D01*
X05694Y0284*
Y02899*
X05714D02*
Y0284D01*
X05744*
X05754Y0285*
Y02889*
X05744Y02899*
X05714*
X05774Y0284D02*
X05794D01*
X05784*
Y02899*
X05774Y02889*
M02*