%FSTAX23Y23*%
%MOIN*%
%SFA1B1*%

%IPPOS*%
%ADD12C,0.010000*%
%ADD22C,0.055120*%
%ADD23C,0.060000*%
%ADD24C,0.059060*%
%ADD25R,0.059060X0.059060*%
%ADD26C,0.070000*%
%ADD27R,0.060000X0.060000*%
%ADD28R,0.059060X0.059060*%
%ADD29R,0.060000X0.060000*%
%ADD30C,0.050000*%
%LNpcb1-1*%
%LPD*%
G54D12*
X06847Y03775D02*
X0693Y03858D01*
X06765Y03775D02*
X06847D01*
X0693Y03858D02*
Y04485D01*
X06595Y0482D02*
X0693Y04485D01*
X01045Y02385D02*
X01125Y02465D01*
X01045Y01606D02*
Y02385D01*
Y01606D02*
X01386Y01265D01*
X01715Y0123D02*
Y01313D01*
X0165Y01165D02*
X01715Y0123D01*
X0147Y01165D02*
X0165D01*
X029Y0178D02*
X0314D01*
X022Y0173D02*
X0285D01*
X029Y0178*
X0442Y023D02*
X04971D01*
X0418Y0206D02*
X0442Y023D01*
X03468Y0206D02*
X0418D01*
X05886Y03356D02*
X0591Y0338D01*
X04084Y03356D02*
X05886D01*
X06246Y03925D02*
X065D01*
X06245Y03923D02*
X06246Y03925D01*
X06245Y03745D02*
Y03923D01*
X0608Y0358D02*
X06245Y03745D01*
X0646Y04715D02*
X0686Y04315D01*
X0478Y04715D02*
X0646D01*
X04745Y0468D02*
X0478Y04715D01*
X0686Y03895D02*
Y04315D01*
X04585Y0482D02*
X06595D01*
X04075Y04845D02*
X04245Y04675D01*
X01536Y04845D02*
X04075D01*
X0124Y04549D02*
X01536Y04845D01*
X01295Y042D02*
X01385D01*
X0124Y04255D02*
X01295Y042D01*
X0124Y04255D02*
Y04549D01*
X02423Y0332D02*
Y03342D01*
X0242Y035D02*
X02501D01*
X02531Y0353*
X02305Y03615D02*
X0242Y035D01*
X0307Y0353D02*
X0312Y0358D01*
X02531Y0353D02*
X0307D01*
X01425Y01313D02*
X01715D01*
X04185Y01535D02*
X0419Y0154D01*
X0313Y0158D02*
X03135Y01585D01*
X02545Y0158D02*
X0313D01*
X01845Y04455D02*
X02033Y04643D01*
X01533Y04455D02*
X01845D01*
X01459Y04381D02*
X01533Y04455D01*
X01405Y03855D02*
X01445Y03815D01*
Y03708D02*
Y03815D01*
Y03708D02*
X01453Y037D01*
X04565Y0272D02*
X0463Y02655D01*
X0384Y0272D02*
X04565D01*
X03825Y02705D02*
X0384Y0272D01*
X0376Y0277D02*
X03825Y02705D01*
X02825Y0277D02*
X0376D01*
X02805Y0275D02*
X02825Y0277D01*
X05445Y0421D02*
Y0434D01*
X05405Y0417D02*
X05445Y0421D01*
X04975Y0417D02*
X05405D01*
X05411Y04374D02*
X05445Y0434D01*
X05067Y04374D02*
X05411D01*
X0247Y04015D02*
X02483Y04002D01*
X0247Y04115D02*
X02485Y041D01*
X0348Y04395D02*
X0463D01*
X03325Y0455D02*
X0348Y04395D01*
X03305Y0455D02*
X03325D01*
X0463Y04395D02*
X04745Y0451D01*
X03555Y04465D02*
X0419D01*
X03425Y04595D02*
X03555Y04465D01*
X0229Y04595D02*
X03425D01*
X04861Y0458D02*
X05067Y04374D01*
X03544Y0458D02*
X04861D01*
X0348Y04643D02*
X03544Y0458D01*
X01535Y0472D02*
X03551D01*
X01385Y0457D02*
X01535Y0472D01*
X01385Y043D02*
Y0457D01*
X03551Y0472D02*
X03647Y04624D01*
X0535Y04015D02*
X0536Y04025D01*
X0492Y04015D02*
X0535D01*
X0406Y03225D02*
X04235D01*
X04035Y0325D02*
X0406Y03225D01*
X04235D02*
X0428Y0327D01*
X05742Y03405D02*
X0577Y03433D01*
X04071Y03405D02*
X05742D01*
X0398Y03314D02*
X04071Y03405D01*
X05595Y0346D02*
X057Y03565D01*
X04021Y0346D02*
X05595D01*
X03935Y03373D02*
X04021Y0346D01*
X057Y03565D02*
Y03618D01*
X05711Y0363D02*
X0603D01*
X057Y03618D02*
X05711Y0363D01*
X0524Y0366D02*
X05683D01*
X048D02*
X0524D01*
X05102Y03522D02*
X0524Y0366D01*
X03178Y03522D02*
X05102D01*
X05758Y03735D02*
X0603D01*
X05683Y0366D02*
X05758Y03735D01*
X06785Y0382D02*
X0686Y03895D01*
X04445Y0468D02*
X04585Y0482D01*
X02055Y0136D02*
X0206Y01365D01*
X0147Y0136D02*
X02055D01*
X0117Y0236D02*
X01635D01*
X01087Y02277D02*
X0117Y0236D01*
X01087Y0165D02*
Y02277D01*
X01125Y02465D02*
X0164D01*
X06785Y0218D02*
Y0372D01*
X0649Y01885D02*
X06785Y0218D01*
X0586Y01885D02*
X0649D01*
X0163Y01565D02*
X0206D01*
X01215Y0198D02*
X0163Y01565D01*
X01215Y0198D02*
Y02015D01*
X02726Y03364D02*
X02856Y03235D01*
X02445Y03364D02*
X02726D01*
X02423Y03342D02*
X02445Y03364D01*
X0553Y03925D02*
X06245D01*
X0247Y04215D02*
X02755Y045D01*
X03255*
X03305Y0455*
X0249Y0332D02*
X0283Y0298D01*
X02955*
X01755Y0255D02*
X02635D01*
X0169Y02615D02*
X01755Y0255D01*
X02635D02*
X0269Y02495D01*
X03565*
X03655Y02405*
X0463Y02655D02*
X0474Y02765D01*
X05645*
X02828Y03406D02*
X02955Y0328D01*
X02396Y03406D02*
X02828D01*
X02345Y03354D02*
X02396Y03406D01*
X02345Y0312D02*
Y03354D01*
Y0312D02*
X0276Y02705D01*
X03655*
X05645Y02595D02*
X05721Y02518D01*
X05868*
X05945Y02595*
X0239Y0332D02*
X02423D01*
X02856Y03235D02*
X0375D01*
X0378Y03265*
X03655Y02005D02*
X037Y0196D01*
X0437*
X04465Y02055*
X0312Y0358D02*
X03178Y03522D01*
X02635Y0215D02*
X0268Y02105D01*
X03423*
X03468Y0206*
X04971Y023D02*
X05037Y02366D01*
X05908*
X05966Y02308*
Y0215D02*
Y02308D01*
X05901Y02085D02*
X05966Y0215D01*
X05835Y02085D02*
X05901D01*
X05745Y02175D02*
X05835Y02085D01*
X05665Y02175D02*
X05745D01*
X05651Y02D02*
X05665Y02175D01*
X05651Y02D02*
X05676Y01975D01*
X0577*
X0586Y01885*
X0548Y0206D02*
X0571Y0183D01*
X04725Y0206D02*
X0548D01*
X0463Y02155D02*
X04725Y0206D01*
X04203Y0451D02*
X04245D01*
X04203Y04478D02*
Y0451D01*
X0419Y04465D02*
X04203Y04478D01*
X02061Y04366D02*
X0229Y04595D01*
X0151Y04366D02*
X02061D01*
X0151Y04255D02*
Y04366D01*
Y04255D02*
X0226D01*
X023Y04215*
X0536Y04025D02*
X0541Y04075D01*
X0674*
X06785Y0412*
X03125Y0298D02*
X03173Y02932D01*
X03912*
X0408Y031*
X0585Y02859D02*
X05945Y02765D01*
X03175Y02859D02*
X0585D01*
X02955Y0308D02*
X03175Y02859D01*
X0492Y04115D02*
X04975Y0417D01*
X02033Y04643D02*
X0348D01*
X01459Y04089D02*
Y04381D01*
X01425Y04055D02*
X01459Y04089D01*
X01358Y04055D02*
X01425D01*
X01303Y04D02*
X01358Y04055D01*
X01303Y039D02*
Y04D01*
Y039D02*
X01348Y03855D01*
X01405*
X01453Y037D02*
X01555D01*
X01075Y03485D02*
X0139Y038D01*
X01075Y032D02*
Y03485D01*
Y032D02*
X01525Y0275D01*
X02635*
X04341Y02455D02*
X0446D01*
X04142Y02256D02*
X04341Y02455D01*
X02889Y02256D02*
X04142D01*
X0285Y02295D02*
X02889Y02256D01*
X0268Y02295D02*
X0285D01*
X02635Y0225D02*
X0268Y02295D01*
X05194Y01715D02*
X05225D01*
X05139Y0177D02*
X05194Y01715D01*
X04586Y0177D02*
X05139D01*
X04437Y01918D02*
X04586Y0177D01*
X01802Y01918D02*
X04437D01*
X01761Y0196D02*
X01802Y01918D01*
X01575Y0196D02*
X01761D01*
X0152Y02015D02*
X01575Y0196D01*
X04489Y04624D02*
X04545Y0468D01*
X03647Y04624D02*
X04489D01*
X05055Y02015D02*
X05126D01*
X05171Y0197*
X05475*
X05715Y0173*
X0497Y04605D02*
X0518D01*
X0536Y04425*
X02425Y0407D02*
X0247Y04115D01*
X01585Y0407D02*
X02425D01*
X01555Y041D02*
X01585Y0407D01*
X0531Y04275D02*
X0536Y04225D01*
X0353Y04275D02*
X0531D01*
X03305Y0405D02*
X0353Y04275D01*
X04465Y02155D02*
X0466Y0196D01*
X0508*
X05225Y01815*
X0536Y03925D02*
X0541Y03975D01*
X0674*
X06785Y0402*
X0333Y04325D02*
X0536D01*
X03305Y0435D02*
X0333Y04325D01*
X01555Y04D02*
Y04033D01*
X0151Y04078D02*
X01555Y04033D01*
X0151Y04078D02*
Y04145D01*
X01642*
X01665Y04168*
X03117*
X03135Y0415*
X01165Y0332D02*
X0229D01*
X01125Y0328D02*
X01165Y0332D01*
X058Y0264D02*
X05845Y02595D01*
X05473Y0264D02*
X058D01*
X05338Y02505D02*
X05473Y0264D01*
X0458Y02505D02*
X05338D01*
X0448Y02405D02*
X0458Y02505D01*
X04437Y02405D02*
X0448D01*
X04192Y0216D02*
X04437Y02405D01*
X037Y0216D02*
X04192D01*
X03655Y02205D02*
X037Y0216D01*
X0152Y02215D02*
X01593D01*
X01643Y02265*
X0255*
X02635Y0235*
X0591Y0348D02*
X05955Y03525D01*
X06125*
X06435Y03215*
X0667*
Y0301D02*
Y03215D01*
X06625Y02965D02*
X0667Y0301D01*
X04053Y01877D02*
X0419Y0174D01*
X0218Y01877D02*
X04053D01*
X02114Y01811D02*
X0218Y01877D01*
X01519Y01811D02*
X02114D01*
X0126Y0207D02*
X01519Y01811D01*
X0117Y0207D02*
X0126D01*
X0117D02*
Y0217D01*
X01215Y02215*
X03135Y01785D02*
X0314Y0178D01*
X03185Y01535D02*
X036D01*
X03135Y01585D02*
X03185Y01535D01*
X01128Y01801D02*
X0147Y0146D01*
X01128Y01801D02*
Y02193D01*
X01205Y0227*
X01565*
X0161Y02315*
X0169*
X01087Y0165D02*
X01425Y01313D01*
X01635Y0236D02*
X0169Y02415D01*
X05225Y02315D02*
X05673D01*
X05674Y02316*
X05793*
X0588Y0223*
X0446Y02255D02*
X0451Y02205D01*
X04826*
X04871Y0216*
X0557*
X05685Y02275*
X05735*
X0588Y0213*
X0571D02*
X05855Y01985D01*
X05925*
X06018Y02078*
Y02336*
X059Y02455D02*
X06018Y02336D01*
X0463Y02455D02*
X059D01*
X0247Y03915D02*
X03085D01*
X03095Y03905*
X04655*
X04715Y03965*
X048*
X04898Y04063*
X05044*
X05106Y04125*
X0536*
X062Y0272D02*
X06245Y02765D01*
X0579Y0272D02*
X062D01*
X05745Y02765D02*
X0579Y0272D01*
X04035Y03307D02*
X04084Y03356D01*
X04035Y0325D02*
Y03307D01*
X02635Y0205D02*
X0268Y02005D01*
X03655*
X06295Y03165D02*
X06625D01*
X0608Y0338D02*
X06295Y03165D01*
X0591Y0328D02*
Y03315D01*
X05995Y034*
X05962Y03433D02*
X05995Y034D01*
X0577Y03433D02*
X05962D01*
X0398Y0327D02*
Y03314D01*
Y031D02*
X04059Y03179D01*
X04286*
X04335Y03131*
Y03026D02*
Y03131D01*
Y03026D02*
X04357Y03004D01*
X0612*
X0629Y02834*
Y02745D02*
Y02834D01*
X06145Y026D02*
X0629Y02745D01*
X01315Y02215D02*
X0152D01*
X01215Y02115D02*
X01315Y02215D01*
X01941Y0205D02*
X02635D01*
X01926Y02065D02*
X01941Y0205D01*
X0157Y02065D02*
X01926D01*
X0152Y02115D02*
X0157Y02065D01*
X05145Y0163D02*
X05715D01*
X0506Y01715D02*
X05145Y0163D01*
X0164Y02465D02*
X0169Y02515D01*
X01386Y01265D02*
X0147D01*
X0674Y038D02*
X06765Y03775D01*
X0674Y038D02*
Y03875D01*
X06785Y0392*
X01385Y039D02*
X01442D01*
X01492Y0385*
Y03787D02*
Y0385D01*
Y03787D02*
X01525Y03755D01*
X02165*
X0226Y0366*
X02353*
X02443Y0357*
X02513*
X02592Y03649*
X03252*
X03337Y03564*
X04869*
X0492Y03615*
X03002Y02305D02*
X03655D01*
X02912Y02395D02*
X03002Y02305D01*
X0268Y02395D02*
X02912D01*
X02635Y0235D02*
X0268Y02395D01*
X06045Y02595D02*
X0614Y025D01*
X06232*
X06332Y026*
Y02852*
X061Y03084D02*
X06332Y02852D01*
X04491Y03084D02*
X061D01*
X04325Y0325D02*
X04491Y03084D01*
X04325Y0325D02*
Y0329D01*
X043Y03315D02*
X04325Y0329D01*
X04125Y03315D02*
X043D01*
X0408Y0327D02*
X04125Y03315D01*
X0603Y0363D02*
X0608Y0358D01*
X03935Y03155D02*
Y03373D01*
X0388Y031D02*
X03935Y03155D01*
X06195Y03065D02*
X06625D01*
X0608Y0318D02*
X06195Y03065D01*
X0418Y031D02*
X04317Y02962D01*
X06047*
X06245Y02765*
X03125Y0308D02*
X03203Y03002D01*
X03882*
X0398Y031*
X06625Y03265D02*
Y038D01*
X065Y03925D02*
X06625Y038D01*
X01475Y03615D02*
X02305D01*
X0139Y037D02*
X01475Y03615D01*
X0438Y0327D02*
X04415Y03235D01*
X05935*
X0608Y0338*
X02385Y043D02*
X0247Y04215D01*
X01555Y043D02*
X02385D01*
X0381Y03335D02*
X0388Y03265D01*
X03Y03335D02*
X0381D01*
X02955Y0338D02*
X03Y03335D01*
X04642Y03707D02*
X0475Y03815D01*
X02552Y03707D02*
X04642D01*
X02515Y0367D02*
X02552Y03707D01*
X02436Y0367D02*
X02515D01*
X02391Y03715D02*
X02436Y0367D01*
X02305Y03715D02*
X02391D01*
X036Y01535D02*
X04185D01*
X02275Y0158D02*
X02545D01*
X0206Y01365D02*
X02275Y0158D01*
X05055Y01915D02*
X052Y0177D01*
X05436*
X05526Y0168*
X0583*
X0588Y0163*
X01555Y038D02*
X0177Y04015D01*
X023*
X04755Y03615D02*
X048Y0366D01*
X0603Y03735D02*
X06075Y0378D01*
X03753Y03127D02*
X0378Y031D01*
X03008Y03127D02*
X03753D01*
X02955Y0318D02*
X03008Y03127D01*
X02485Y041D02*
X03255D01*
X03305Y0405*
X04871Y03863D02*
X0492Y03815D01*
X02351Y03863D02*
X04871D01*
X023Y03915D02*
X02351Y03863D01*
X02483Y04002D02*
X04637D01*
X0475Y04115*
X04755Y03715D02*
X0492D01*
X03135Y0445D02*
X03305D01*
X0446Y02555D02*
X0463D01*
G54D22*
X01215Y0461D03*
X01915D03*
X022Y0245D03*
Y0175D03*
G54D23*
X0419Y0134D03*
Y0144D03*
Y0154D03*
Y0164D03*
Y0174D03*
X036D03*
Y01635D03*
Y01535D03*
Y0144D03*
Y0134D03*
X03135Y01385D03*
Y01485D03*
Y01585D03*
Y01685D03*
Y01785D03*
X02545D03*
Y0168D03*
Y0158D03*
Y01485D03*
Y01385D03*
X0206Y01165D03*
Y01265D03*
Y01365D03*
Y01465D03*
Y01565D03*
X0147D03*
Y0146D03*
Y0136D03*
Y01265D03*
Y01165D03*
X02805Y0205D03*
Y0215D03*
Y0225D03*
Y0235D03*
Y0245D03*
Y0255D03*
Y0265D03*
X02635Y0205D03*
Y0215D03*
Y0225D03*
Y0235D03*
Y0245D03*
Y0255D03*
Y0275D03*
Y0265D03*
X03825Y02005D03*
Y02105D03*
Y02205D03*
Y02305D03*
Y02405D03*
Y02505D03*
Y02605D03*
X03655Y02005D03*
Y02105D03*
Y02205D03*
Y02305D03*
Y02405D03*
Y02505D03*
Y02705D03*
Y02605D03*
X0169Y01915D03*
Y02015D03*
Y02115D03*
Y02215D03*
Y02315D03*
Y02415D03*
Y02515D03*
X0152Y01915D03*
Y02015D03*
Y02115D03*
Y02215D03*
Y02315D03*
Y02415D03*
Y02615D03*
Y02515D03*
X02305Y03615D03*
Y03715D03*
X023Y03815D03*
Y03915D03*
Y04015D03*
Y04115D03*
Y04215D03*
X0247Y04115D03*
Y04015D03*
Y03915D03*
Y03815D03*
Y03715D03*
Y03615D03*
X04145Y04675D03*
X04245D03*
X04345Y0468D03*
X04445D03*
X04545D03*
X04645D03*
X04745D03*
X04645Y0451D03*
X04545D03*
X04445D03*
X04345D03*
X04245D03*
X04145D03*
X0314Y0395D03*
Y0405D03*
X03135Y0415D03*
Y0425D03*
Y0435D03*
Y0445D03*
Y0455D03*
X03305Y0445D03*
Y0435D03*
Y0425D03*
Y0415D03*
Y0405D03*
Y0395D03*
X04755Y03615D03*
Y03715D03*
X0475Y03815D03*
Y03915D03*
Y04015D03*
Y04115D03*
Y04215D03*
X0492Y04115D03*
Y04015D03*
Y03915D03*
Y03815D03*
Y03715D03*
Y03615D03*
X05715Y0163D03*
Y0173D03*
X0571Y0183D03*
Y0193D03*
Y0203D03*
Y0213D03*
Y0223D03*
X0588Y0213D03*
Y0203D03*
Y0193D03*
Y0183D03*
Y0173D03*
Y0163D03*
X04465Y02055D03*
Y02155D03*
X0446Y02255D03*
Y02355D03*
Y02455D03*
Y02555D03*
Y02655D03*
X0463Y02555D03*
Y02455D03*
Y02355D03*
Y02255D03*
Y02155D03*
Y02055D03*
X0139Y037D03*
Y038D03*
X01385Y039D03*
Y04D03*
Y041D03*
Y042D03*
Y043D03*
X01555Y042D03*
Y041D03*
Y04D03*
Y039D03*
Y038D03*
Y037D03*
X0506Y01715D03*
Y01815D03*
X05055Y01915D03*
Y02015D03*
Y02115D03*
Y02215D03*
Y02315D03*
X05225Y02215D03*
Y02115D03*
Y02015D03*
Y01915D03*
Y01815D03*
Y01715D03*
X06245Y026D03*
X06145D03*
X06045Y02595D03*
X05945D03*
X05845D03*
X05745D03*
X05645D03*
X05745Y02765D03*
X05845D03*
X05945D03*
X06045D03*
X06145D03*
X06245D03*
X06075Y0378D03*
Y0368D03*
X0608Y0358D03*
Y0348D03*
Y0338D03*
Y0328D03*
Y0318D03*
X0591Y0328D03*
Y0338D03*
Y0348D03*
Y0358D03*
Y0368D03*
Y0378D03*
X0378Y03265D03*
X0388D03*
X0398Y0327D03*
X0408D03*
X0418D03*
X0428D03*
X0438D03*
X0428Y031D03*
X0418D03*
X0408D03*
X0398D03*
X0388D03*
X0378D03*
X0312Y0358D03*
Y0348D03*
X03125Y0338D03*
Y0328D03*
Y0318D03*
Y0308D03*
Y0298D03*
X02955Y0308D03*
Y0318D03*
Y0328D03*
Y0338D03*
Y0348D03*
Y0358D03*
X05525Y04425D03*
Y04325D03*
X0553Y04225D03*
Y04125D03*
Y04025D03*
Y03925D03*
Y03825D03*
X0536Y03925D03*
Y04025D03*
Y04125D03*
Y04225D03*
Y04325D03*
Y04425D03*
G54D24*
X06625Y03265D03*
Y03165D03*
Y03065D03*
X01215Y02115D03*
Y02215D03*
X0239Y0332D03*
X0229D03*
X06785Y0372D03*
Y0382D03*
Y0392D03*
Y0402D03*
G54D25*
X06625Y02965D03*
X01215Y02015D03*
X06785Y0412D03*
G54D26*
X0585Y0461D03*
X0575D03*
X01125Y0328D03*
Y0338D03*
G54D27*
X02805Y0275D03*
X03825Y02705D03*
X0169Y02615D03*
X0247Y04215D03*
X03305Y0455D03*
X0492Y04215D03*
X0588Y0223D03*
X0463Y02655D03*
X01555Y043D03*
X05225Y02315D03*
X0591Y0318D03*
X02955Y0298D03*
X0536Y03825D03*
G54D28*
X0249Y0332D03*
G54D29*
X04745Y0451D03*
X05645Y02765D03*
X0438Y031D03*
G54D30*
X0497Y04605D03*
M02*