%FSTAX23Y23*%
%MOIN*%
%SFA1B1*%

%IPPOS*%
%ADD10C,0.007870*%
%ADD11C,0.010000*%
%LNpcb1-1*%
%LPD*%
G54D10*
X04812Y04595D02*
X04912D01*
Y04395D02*
Y04595D01*
X04812Y04395D02*
X04912D01*
X04812D02*
Y04595D01*
X04849Y02989D02*
X04949D01*
X04849D02*
Y03289D01*
X04949*
Y02989D02*
Y03289D01*
X06321Y01798D02*
Y02923D01*
Y01723D02*
Y01798D01*
Y01723D02*
X06421D01*
Y02923*
X06321D02*
X06421D01*
X0644Y03622D02*
X0674D01*
Y03722*
X0644D02*
X0674D01*
X0644Y03622D02*
Y03722D01*
X06468Y03989D02*
X06768D01*
Y04089*
X06468D02*
X06768D01*
X06468Y03989D02*
Y04089D01*
X04778Y03936D02*
Y04036D01*
X04478Y03936D02*
X04778D01*
X04478D02*
Y04036D01*
X04778*
X05806Y04418D02*
Y04718D01*
Y04418D02*
X05906D01*
Y04718*
X05806D02*
X05906D01*
X0551Y04547D02*
X0561D01*
Y04347D02*
Y04547D01*
X0551Y04347D02*
X0561D01*
X0551D02*
Y04547D01*
X05196Y0437D02*
Y0467D01*
Y0437D02*
X05296D01*
Y0467*
X05196D02*
X05296D01*
X06141Y04354D02*
X06241D01*
X06141D02*
Y04554D01*
X06241*
Y04354D02*
Y04554D01*
X03937Y03943D02*
X04237D01*
Y04043*
X03937D02*
X04237D01*
X03937Y03943D02*
Y04043D01*
X03433Y04083D02*
X03733D01*
X03433Y03983D02*
Y04083D01*
Y03983D02*
X03733D01*
Y04083*
X04109Y03197D02*
Y03497D01*
Y03197D02*
X04209D01*
Y03497*
X04109D02*
X04209D01*
X03367Y02799D02*
Y03099D01*
Y02799D02*
X03467D01*
Y03099*
X03367D02*
X03467D01*
X02459Y0277D02*
Y0307D01*
Y0277D02*
X02559D01*
Y0307*
X02459D02*
X02559D01*
X01529Y02784D02*
Y03084D01*
Y02784D02*
X01629D01*
Y03084*
X01529D02*
X01629D01*
G54D11*
X02959Y04593D02*
X03209D01*
X02959Y03868D02*
Y04593D01*
Y03868D02*
X03209D01*
Y04593*
X02253Y04233D02*
X02503D01*
X02253Y03508D02*
Y04233D01*
Y03508D02*
X02503D01*
Y04233*
X0367Y01398D02*
X04495D01*
Y01648*
X0367Y01398D02*
Y01648D01*
X04495*
X01952Y01345D02*
X02777D01*
Y01595*
X01952Y01345D02*
Y01595D01*
X02777*
X05484Y0387D02*
Y0412D01*
Y0387D02*
X06209D01*
Y0412*
X05484D02*
X06209D01*
X04763Y03502D02*
Y03752D01*
Y03502D02*
X05488D01*
Y03752*
X04763D02*
X05488D01*
X05688Y01323D02*
Y01573D01*
X04963D02*
X05688D01*
X04963Y01323D02*
Y01573D01*
Y01323D02*
X05688D01*
X01864Y03238D02*
X02114D01*
X01864Y02513D02*
Y03238D01*
Y02513D02*
X02114D01*
Y03238*
X03759Y03128D02*
X04009D01*
X03759Y02403D02*
Y03128D01*
Y02403D02*
X04009D01*
Y03128*
X02818Y03174D02*
X03068D01*
X02818Y02449D02*
Y03174D01*
Y02449D02*
X03068D01*
Y03174*
X04343Y03145D02*
X04593D01*
X04343Y0242D02*
Y03145D01*
Y0242D02*
X04593D01*
Y03145*
X05192Y03125D02*
X05442D01*
X05192Y024D02*
Y03125D01*
Y024D02*
X05442D01*
Y03125*
X04858Y04699D02*
X04848Y04709D01*
X04828*
X04818Y04699*
Y04659*
X04828Y04649*
X04848*
X04858Y04659*
X04888Y04689D02*
X04908D01*
X04918Y04679*
Y04649*
X04888*
X04878Y04659*
X04888Y04669*
X04918*
X04938Y04629D02*
Y04689D01*
X04968*
X04978Y04679*
Y04659*
X04968Y04649*
X04938*
X05038D02*
X04998D01*
X05038Y04689*
Y04699*
X05028Y04709*
X05008*
X04998Y04699*
X06328Y02957D02*
Y03017D01*
X06358*
X06368Y03007*
Y02987*
X06358Y02977*
X06328*
X06388Y02957D02*
X06408D01*
X06398*
Y03017*
X06388Y03007*
X02287Y04328D02*
X02268D01*
X02258Y04318*
Y04279*
X02268Y04269*
X02287*
X02297Y04279*
Y04318*
X02287Y04328*
X02317Y04269D02*
Y04328D01*
X02347*
X02357Y04318*
Y04298*
X02347Y04288*
X02317*
X02337D02*
X02357Y04269D01*
X02417D02*
X02377D01*
X02417Y04308*
Y04318*
X02407Y04328*
X02387*
X02377Y04318*
X02994Y04689D02*
X02974D01*
X02964Y04679*
Y04639*
X02974Y04629*
X02994*
X03004Y04639*
Y04679*
X02994Y04689*
X03024Y04629D02*
Y04689D01*
X03054*
X03064Y04679*
Y04659*
X03054Y04649*
X03024*
X03044D02*
X03064Y04629D01*
X03084D02*
X03104D01*
X03094*
Y04689*
X03084Y04679*
X05489Y04215D02*
X05529Y04155D01*
Y04215D02*
X05489Y04155D01*
X05579Y04215D02*
X05559D01*
X05549Y04205*
Y04165*
X05559Y04155*
X05579*
X05589Y04165*
Y04205*
X05579Y04215*
X05609Y04155D02*
Y04215D01*
X05639*
X05649Y04205*
Y04185*
X05639Y04175*
X05609*
X05629D02*
X05649Y04155D01*
X06514Y04173D02*
X06504Y04183D01*
X06484*
X06474Y04173*
Y04163*
X06484Y04153*
X06504*
X06514Y04143*
Y04133*
X06504Y04123*
X06484*
X06474Y04133*
X06534Y04183D02*
Y04123D01*
X06564*
X06574Y04133*
Y04143*
X06564Y04153*
X06534*
X06564*
X06574Y04163*
Y04173*
X06564Y04183*
X06534*
X06486Y03806D02*
X06476Y03816D01*
X06456*
X06446Y03806*
Y03796*
X06456Y03786*
X06476*
X06486Y03776*
Y03766*
X06476Y03756*
X06456*
X06446Y03766*
X06506Y03756D02*
Y03796D01*
X06526Y03816*
X06546Y03796*
Y03756*
Y03786*
X06506*
X04998Y01668D02*
X04978D01*
X04968Y01658*
Y01618*
X04978Y01608*
X04998*
X05008Y01618*
Y01658*
X04998Y01668*
X05028Y01608D02*
Y01668D01*
X05058*
X05068Y01658*
Y01638*
X05058Y01628*
X05028*
X05048D02*
X05068Y01608D01*
X04768Y03787D02*
Y03827D01*
X04788Y03847*
X04808Y03827*
Y03787*
Y03817*
X04768*
X04828Y03787D02*
Y03847D01*
X04868Y03787*
Y03847*
X04888D02*
Y03787D01*
X04918*
X04928Y03797*
Y03837*
X04918Y03847*
X04888*
X01988Y0165D02*
Y0171D01*
X01958Y0168*
X01998*
X02078Y0171D02*
Y0165D01*
X02108*
X02118Y0166*
Y0167*
Y0168*
X02108Y0169*
X02078*
X02138Y0165D02*
X02158D01*
X02148*
Y0169*
X02138*
X02198Y017D02*
Y0169D01*
X02188*
X02208*
X02198*
Y0166*
X02208Y0165*
X02238Y0168D02*
X02278D01*
X02298Y0171D02*
Y0165D01*
X02328*
X02338Y0166*
Y0167*
Y0168*
X02328Y0169*
X02298*
X02358Y0165D02*
X02378D01*
X02368*
Y0169*
X02358*
X02408Y0165D02*
Y0169D01*
X02438*
X02448Y0168*
Y0165*
X02478Y0169D02*
X02498D01*
X02508Y0168*
Y0165*
X02478*
X02468Y0166*
X02478Y0167*
X02508*
X02528Y0169D02*
Y0165D01*
Y0167*
X02538Y0168*
X02548Y0169*
X02558*
X02588D02*
Y0166D01*
X02598Y0165*
X02628*
Y0164*
X02618Y0163*
X02608*
X02628Y0165D02*
Y0169D01*
X02717D02*
X02737D01*
X02747Y0168*
Y0165*
X02717*
X02707Y0166*
X02717Y0167*
X02747*
X02807Y0171D02*
Y0165D01*
X02777*
X02767Y0166*
Y0168*
X02777Y0169*
X02807*
X02867Y0171D02*
Y0165D01*
X02837*
X02827Y0166*
Y0168*
X02837Y0169*
X02867*
X02917Y0165D02*
X02897D01*
X02887Y0166*
Y0168*
X02897Y0169*
X02917*
X02927Y0168*
Y0167*
X02887*
X02947Y0169D02*
Y0165D01*
Y0167*
X02957Y0168*
X02967Y0169*
X02977*
X03705Y01703D02*
Y01763D01*
X03675Y01733*
X03715*
X03795Y01763D02*
Y01703D01*
X03825*
X03835Y01713*
Y01723*
Y01733*
X03825Y01743*
X03795*
X03855Y01703D02*
X03875D01*
X03865*
Y01743*
X03855*
X03915Y01753D02*
Y01743D01*
X03905*
X03925*
X03915*
Y01713*
X03925Y01703*
X03955Y01733D02*
X03995D01*
X04015Y01763D02*
Y01703D01*
X04045*
X04055Y01713*
Y01723*
Y01733*
X04045Y01743*
X04015*
X04075Y01703D02*
X04095D01*
X04085*
Y01743*
X04075*
X04125Y01703D02*
Y01743D01*
X04155*
X04165Y01733*
Y01703*
X04195Y01743D02*
X04215D01*
X04225Y01733*
Y01703*
X04195*
X04185Y01713*
X04195Y01723*
X04225*
X04245Y01743D02*
Y01703D01*
Y01723*
X04255Y01733*
X04265Y01743*
X04275*
X04305D02*
Y01713D01*
X04315Y01703*
X04345*
Y01693*
X04335Y01683*
X04325*
X04345Y01703D02*
Y01743D01*
X04435D02*
X04455D01*
X04465Y01733*
Y01703*
X04435*
X04425Y01713*
X04435Y01723*
X04465*
X04525Y01763D02*
Y01703D01*
X04495*
X04485Y01713*
Y01733*
X04495Y01743*
X04525*
X04585Y01763D02*
Y01703D01*
X04555*
X04545Y01713*
Y01733*
X04555Y01743*
X04585*
X04635Y01703D02*
X04615D01*
X04605Y01713*
Y01733*
X04615Y01743*
X04635*
X04645Y01733*
Y01723*
X04605*
X04665Y01743D02*
Y01703D01*
Y01723*
X04675Y01733*
X04685Y01743*
X04695*
X05202Y04724D02*
Y04784D01*
X05232*
X05242Y04774*
Y04754*
X05232Y04744*
X05202*
X05222D02*
X05242Y04724D01*
X05292D02*
X05272D01*
X05262Y04734*
Y04754*
X05272Y04764*
X05292*
X05302Y04754*
Y04744*
X05262*
X05342Y04704D02*
X05352D01*
X05362Y04714*
Y04764*
X05332*
X05322Y04754*
Y04734*
X05332Y04724*
X05362*
X05382Y04764D02*
Y04734D01*
X05392Y04724*
X05422*
Y04764*
X05442Y04724D02*
X05462D01*
X05452*
Y04784*
X05442*
X05502Y04764D02*
X05522D01*
X05532Y04754*
Y04724*
X05502*
X05492Y04734*
X05502Y04744*
X05532*
X05562Y04774D02*
Y04764D01*
X05552*
X05572*
X05562*
Y04734*
X05572Y04724*
X05612D02*
X05632D01*
X05642Y04734*
Y04754*
X05632Y04764*
X05612*
X05602Y04754*
Y04734*
X05612Y04724*
X05662Y04764D02*
Y04724D01*
Y04744*
X05672Y04754*
X05682Y04764*
X05692*
X05722Y04724D02*
X05742D01*
X05732*
Y04784*
X05722Y04774*
X05812Y04752D02*
Y04812D01*
X05842*
X05852Y04802*
Y04782*
X05842Y04772*
X05812*
X05882Y04752D02*
X05902D01*
X05912Y04762*
Y04782*
X05902Y04792*
X05882*
X05872Y04782*
Y04762*
X05882Y04752*
X05932Y04792D02*
Y04762D01*
X05942Y04752*
X05952Y04762*
X05962Y04752*
X05972Y04762*
Y04792*
X06022Y04752D02*
X06002D01*
X05992Y04762*
Y04782*
X06002Y04792*
X06022*
X06032Y04782*
Y04772*
X05992*
X06052Y04792D02*
Y04752D01*
Y04772*
X06062Y04782*
X06072Y04792*
X06082*
X06212Y04802D02*
X06202Y04812D01*
X06182*
X06172Y04802*
Y04792*
X06182Y04782*
X06202*
X06212Y04772*
Y04762*
X06202Y04752*
X06182*
X06172Y04762*
X06232Y04792D02*
Y04762D01*
X06242Y04752*
X06252Y04762*
X06262Y04752*
X06272Y04762*
Y04792*
X06292Y04752D02*
X06312D01*
X06302*
Y04792*
X06292*
X06352Y04802D02*
Y04792D01*
X06342*
X06362*
X06352*
Y04762*
X06362Y04752*
X06432Y04792D02*
X06402D01*
X06392Y04782*
Y04762*
X06402Y04752*
X06432*
X06452Y04812D02*
Y04752D01*
Y04782*
X06462Y04792*
X06482*
X06492Y04782*
Y04752*
X06512D02*
X06532D01*
X06522*
Y04812*
X06512Y04802*
X06147Y04588D02*
Y04648D01*
X06177*
X06187Y04638*
Y04618*
X06177Y04608*
X06147*
X06217Y04588D02*
X06237D01*
X06247Y04598*
Y04618*
X06237Y04628*
X06217*
X06207Y04618*
Y04598*
X06217Y04588*
X06267Y04628D02*
Y04598D01*
X06277Y04588*
X06287Y04598*
X06297Y04588*
X06307Y04598*
Y04628*
X06357Y04588D02*
X06337D01*
X06327Y04598*
Y04618*
X06337Y04628*
X06357*
X06367Y04618*
Y04608*
X06327*
X06387Y04628D02*
Y04588D01*
Y04608*
X06397Y04618*
X06407Y04628*
X06417*
X06507Y04588D02*
X06537D01*
X06547Y04598*
X06537Y04608*
X06517*
X06507Y04618*
X06517Y04628*
X06547*
X06576Y04588D02*
X06596D01*
X06606Y04598*
Y04618*
X06596Y04628*
X06576*
X06567Y04618*
Y04598*
X06576Y04588*
X06626Y04628D02*
Y04598D01*
X06636Y04588*
X06666*
Y04628*
X06686D02*
Y04588D01*
Y04608*
X06696Y04618*
X06706Y04628*
X06716*
X06786D02*
X06756D01*
X06746Y04618*
Y04598*
X06756Y04588*
X06786*
X06836D02*
X06816D01*
X06806Y04598*
Y04618*
X06816Y04628*
X06836*
X06846Y04618*
Y04608*
X06806*
X06866Y04588D02*
X06886D01*
X06876*
Y04648*
X06866Y04638*
X04484Y0413D02*
Y0407D01*
X04514*
X04524Y0408*
Y0409*
X04514Y041*
X04484*
X04514*
X04524Y0411*
Y0412*
X04514Y0413*
X04484*
X04584D02*
X04544D01*
Y041*
X04564*
X04544*
Y0407*
X04604Y0412D02*
X04614Y0413D01*
X04634*
X04644Y0412*
Y0408*
X04634Y0407*
X04614*
X04604Y0408*
Y0412*
X03943Y04137D02*
Y04077D01*
X03973*
X03983Y04087*
Y04097*
X03973Y04107*
X03943*
X03973*
X03983Y04117*
Y04127*
X03973Y04137*
X03943*
X04003Y04127D02*
X04013Y04137D01*
X04033*
X04043Y04127*
Y04087*
X04033Y04077*
X04013*
X04003Y04087*
Y04127*
X03439Y04177D02*
Y04117D01*
X03469*
X03479Y04127*
Y04137*
X03469Y04147*
X03439*
X03469*
X03479Y04157*
Y04167*
X03469Y04177*
X03439*
X03499Y04117D02*
X03519D01*
X03509*
Y04177*
X03499Y04167*
X04854Y03323D02*
Y03363D01*
X04874Y03383*
X04894Y03363*
Y03323*
Y03353*
X04854*
X04954Y03383D02*
X04914D01*
Y03353*
X04934*
X04914*
Y03323*
X04974D02*
X04994D01*
X04984*
Y03383*
X04974Y03373*
X04115Y03531D02*
Y03571D01*
X04135Y03591*
X04155Y03571*
Y03531*
Y03561*
X04115*
X04215Y03591D02*
X04175D01*
Y03561*
X04195*
X04175*
Y03531*
X04235Y03581D02*
X04245Y03591D01*
X04265*
X04275Y03581*
Y03541*
X04265Y03531*
X04245*
X04235Y03541*
Y03581*
X03373Y03133D02*
Y03173D01*
X03393Y03193*
X03413Y03173*
Y03133*
Y03163*
X03373*
X03433Y03183D02*
X03443Y03193D01*
X03463*
X03473Y03183*
Y03143*
X03463Y03133*
X03443*
X03433Y03143*
Y03183*
X02465Y03104D02*
Y03144D01*
X02485Y03164*
X02505Y03144*
Y03104*
Y03134*
X02465*
X02525Y03104D02*
X02545D01*
X02535*
Y03164*
X02525Y03154*
X01535Y03118D02*
Y03158D01*
X01555Y03178*
X01575Y03158*
Y03118*
Y03148*
X01535*
X01635Y03118D02*
X01595D01*
X01635Y03158*
Y03168*
X01625Y03178*
X01605*
X01595Y03168*
X05557Y04651D02*
X05547Y04661D01*
X05527*
X05517Y04651*
Y04611*
X05527Y04601*
X05547*
X05557Y04611*
X05587Y04641D02*
X05607D01*
X05616Y04631*
Y04601*
X05587*
X05577Y04611*
X05587Y04621*
X05616*
X05636Y04581D02*
Y04641D01*
X05666*
X05676Y04631*
Y04611*
X05666Y04601*
X05636*
X05696D02*
X05716D01*
X05706*
Y04661*
X05696Y04651*
X05197Y0316D02*
Y032D01*
X05217Y0322*
X05236Y032*
Y0316*
Y0319*
X05197*
X05296Y0322D02*
X05256D01*
Y0319*
X05276*
X05256*
Y0316*
X05316D02*
X05336D01*
X05326*
Y0322*
X05316Y0321*
X04348Y0318D02*
Y0322D01*
X04368Y0324*
X04388Y0322*
Y0318*
Y0321*
X04348*
X04448Y0324D02*
X04408D01*
Y0321*
X04428*
X04408*
Y0318*
X04468Y0323D02*
X04478Y0324D01*
X04498*
X04508Y0323*
Y0319*
X04498Y0318*
X04478*
X04468Y0319*
Y0323*
X03764Y03163D02*
Y03203D01*
X03784Y03223*
X03804Y03203*
Y03163*
Y03193*
X03764*
X03824Y03213D02*
X03834Y03223D01*
X03854*
X03864Y03213*
Y03173*
X03854Y03163*
X03834*
X03824Y03173*
Y03213*
X02823Y03209D02*
Y03249D01*
X02843Y03269*
X02863Y03249*
Y03209*
Y03239*
X02823*
X02883Y03209D02*
X02903D01*
X02893*
Y03269*
X02883Y03259*
X01869Y03273D02*
Y03313D01*
X01889Y03333*
X01909Y03313*
Y03273*
Y03303*
X01869*
X01969Y03273D02*
X01929D01*
X01969Y03313*
Y03323*
X01959Y03333*
X01939*
X01929Y03323*
M02*