%FSTAX23Y23*%
%MOIN*%
%SFA1B1*%

%IPPOS*%
%ADD11C,0.010000*%
%ADD19R,0.059060X0.059060*%
%ADD20C,0.059060*%
%ADD21C,0.060000*%
%ADD22R,0.060000X0.060000*%
%ADD23R,0.059060X0.059060*%
%ADD24R,0.060000X0.060000*%
%ADD25C,0.050000*%
%LNpcb1-1*%
%LPD*%
G54D11*
X06377Y04117D02*
X0654D01*
X06276Y04016D02*
X06377Y04117D01*
X06103Y04016D02*
X06276D01*
X06039Y0408D02*
X06103Y04016D01*
X0654Y04117D02*
X06618Y04039D01*
X04504Y02541D02*
X04553Y0259D01*
X04028Y02541D02*
X04504D01*
X04015Y02528D02*
X04028Y02541D01*
X04321Y02424D02*
X04388Y0249D01*
X03493Y02528D02*
X04015D01*
X03393Y02428D02*
X03493Y02528D01*
X03034Y02428D02*
X03393D01*
X02897Y02565D02*
X03034Y02428D01*
X02604Y02565D02*
X02897D01*
X03687Y02356D02*
X03804Y02473D01*
X03026Y02356D02*
X03687D01*
X02863Y02519D02*
X03026Y02356D01*
X02982Y02765D02*
X03028Y02719D01*
X02246Y02765D02*
X02982D01*
X02229Y02783D02*
X02246Y02765D01*
X02206Y02719D02*
X02858D01*
X02197Y02728D02*
X02206Y02719D01*
X02605Y0267D02*
X02895D01*
X02434Y02498D02*
X02605Y0267D01*
X01815Y02498D02*
X02434D01*
X01445Y02868D02*
X01815Y02498D01*
X02549Y03493D02*
X04304D01*
Y03398D02*
Y03493D01*
X04114Y03398D02*
X04304D01*
X04891Y03247D02*
X04899Y03239D01*
X04159Y03247D02*
X04891D01*
X04817Y03605D02*
X04819Y03607D01*
X04773Y03561D02*
X04817Y03605D01*
X04495D02*
X04817D01*
X04425Y03535D02*
X04495Y03605D01*
X05154Y03607D02*
X05218Y03542D01*
X04819Y03607D02*
X05154D01*
X06371Y02073D02*
X06569D01*
X06672Y01969*
X06508Y01648D02*
X06672Y01813D01*
Y01969*
X06053Y01648D02*
X06508D01*
X04353Y02173D02*
X06371D01*
X0388Y017D02*
X04353Y02173D01*
X04293Y02273D02*
X06371D01*
X03825Y01805D02*
X04293Y02273D01*
X03825Y01608D02*
Y01805D01*
X02246Y01444D02*
X02273Y01471D01*
X02167Y01444D02*
X02246D01*
X02107Y01385D02*
X02167Y01444D01*
X02273Y01471D02*
X03603D01*
X03722Y01352*
X02452Y0143D02*
X03406D01*
X02407Y01385D02*
X02452Y0143D01*
X03406D02*
X03537Y01299D01*
X02507Y01385D02*
X02663Y01229D01*
X02407Y01385D02*
X02663Y01129D01*
X0492Y01484D02*
X04924Y0148D01*
X05885*
X03537Y01299D02*
X03986D01*
X04125Y01438*
X04325Y01308D02*
Y01438D01*
X04246Y01229D02*
X04325Y01308D01*
X02663Y01229D02*
X04246D01*
X05399Y01129D02*
X05633Y01363D01*
X02663Y01129D02*
X05399D01*
X02407Y01555D02*
Y01618D01*
X02349Y01676D02*
X02407Y01618D01*
X02284Y01676D02*
X02349D01*
X02258Y01649D02*
X02284Y01676D01*
X04794Y01608D02*
X05158Y01973D01*
X04425Y01608D02*
X04794D01*
X05158Y01973D02*
X06371D01*
X06823Y02346D02*
Y0414D01*
X06734Y0423D02*
X06823Y0414D01*
X05788Y0423D02*
X06734D01*
X05639Y0408D02*
X05788Y0423D01*
X066Y02123D02*
X06823Y02346D01*
X01445Y03232D02*
X02146Y03933D01*
X01445Y02868D02*
Y03232D01*
X02146Y03933D02*
X02509D01*
X02463Y02423D02*
X02604Y02565D01*
X01671Y02423D02*
X02463D01*
X01355Y02739D02*
X01671Y02423D01*
X01355Y02739D02*
Y03289D01*
X02095Y04029*
X02889Y04093D02*
X0298Y04184D01*
X04383Y0269D02*
X04428Y02645D01*
X05206*
X05232Y0267*
X03799Y02673D02*
X03874D01*
X03922Y02626*
X04318*
X04383Y0269*
X04388Y0249D02*
X04437Y02441D01*
X05207*
X05237Y0247*
X03804Y02473D02*
X03853Y02424D01*
X04321*
X01579Y02834D02*
X01831Y02583D01*
X01909*
X04887Y0452D02*
X05246D01*
X04862Y04545D02*
X04887Y0452D01*
X05921Y04404D02*
X06191D01*
X05856Y04468D02*
X05921Y04404D01*
X05269Y04497D02*
X0556D01*
X05246Y0452D02*
X05269Y04497D01*
X05589Y04468D02*
X05856D01*
X0556Y04497D02*
X05589Y04468D01*
X03119Y04489D02*
X03169Y04538D01*
X02773Y04489D02*
X03119D01*
X02463Y04178D02*
X02773Y04489D01*
X04899Y03039D02*
X05056D01*
X05074Y03021*
X05352*
X05402Y0307*
X04604Y03039D02*
X04899D01*
X04553Y0309D02*
X04604Y03039D01*
X04503Y0314D02*
X04553Y0309D01*
X04036Y0314D02*
X04503D01*
X03969Y03073D02*
X04036Y0314D01*
X03919Y03123D02*
X03969Y03073D01*
X03491Y03123D02*
X03919D01*
X03417Y03049D02*
X03491Y03123D01*
X03098Y03049D02*
X03417D01*
X03028Y03119D02*
X03098Y03049D01*
X05298Y04568D02*
X05856D01*
X05246Y0462D02*
X05298Y04568D01*
X01579Y02934D02*
X01852D01*
X01904Y02883*
X0261Y02819D02*
X02858D01*
X02509Y0292D02*
X0261Y02819D01*
X04899Y03139D02*
X05163D01*
X05232Y0307*
X02804Y03073D02*
X02858Y03019D01*
X02319Y03073D02*
X02804D01*
X02284Y03038D02*
X02319Y03073D01*
X01949Y03038D02*
X02284D01*
X01904Y03083D02*
X01949Y03038D01*
X04383Y0299D02*
X04428Y02945D01*
X05206*
X05232Y0297*
X03923Y02719D02*
X03969Y02673D01*
X03028Y02719D02*
X03923D01*
X05352Y0272D02*
X05402Y0267D01*
X04582Y0272D02*
X05352D01*
X04553Y0269D02*
X04582Y0272D01*
X04503Y0274D02*
X04553Y0269D01*
X04036Y0274D02*
X04503D01*
X03969Y02673D02*
X04036Y0274D01*
X02707Y01555D02*
X03693D01*
X0378Y01469*
Y01393D02*
Y01469D01*
Y01393D02*
X0385D01*
X0388Y01423*
Y01478*
X0398Y01578*
Y01654*
X0418*
X04225Y01608*
X03722Y01352D02*
X03938D01*
X04025Y01438*
X0298Y04184D02*
X03522D01*
X03538Y04168*
Y03989D02*
Y04168D01*
Y03989D02*
X03602D01*
X03638Y04025*
Y0411*
X03736Y04208*
X05522*
X05594Y04136*
Y04036D02*
Y04136D01*
Y04036D02*
X05674Y03956D01*
X05794*
X05839Y0391*
X03825Y01438D02*
Y01541D01*
X0388Y01596*
Y017*
X03925Y01608D02*
Y01681D01*
X0396Y01716*
X04488*
X04895Y02123*
X066*
X02509Y03535D02*
X04425D01*
X02508Y03533D02*
X02509Y03535D01*
X02264Y03533D02*
X02508D01*
X02253Y03545D02*
X02264Y03533D01*
X02253Y03545D02*
Y03723D01*
X02315*
X02344Y03751*
Y03824*
X02177D02*
X02344D01*
X01535Y03182D02*
X02177Y03824D01*
X01535Y02885D02*
Y03182D01*
Y02885D02*
X0165D01*
X01851Y02683*
X01909*
X05839Y0408D02*
X05922Y03997D01*
X06062*
X06085Y03974*
Y0266D02*
Y03974D01*
Y0266D02*
X06371Y02373D01*
X05739Y0408D02*
X05864Y03955D01*
X05999*
X06039Y03915*
X02463Y03578D02*
X0261D01*
X02681Y03649*
X05255*
X05318Y03712*
X06371Y02873D02*
Y03354D01*
X0669Y03672*
X05038Y03893D02*
X05218Y03712D01*
X0315Y03893D02*
X05038D01*
X03004Y04038D02*
X0315Y03893D01*
X04773Y03501D02*
Y03561D01*
Y03501D02*
X04934Y03339D01*
X05529*
X05939Y03749*
Y0391*
X02107Y01555D02*
Y017D01*
X02295Y01887*
X03446*
X03725Y01608*
X03723Y03993D02*
X03987D01*
X03683Y04033D02*
X03723Y03993D01*
X02959Y03984D02*
X03004Y03938D01*
X02959Y03984D02*
Y04089D01*
X03428*
X03483Y04033*
X03497Y04019*
Y04006D02*
Y04019D01*
X03497Y04006D02*
X03497D01*
X03497Y03947D02*
Y04006D01*
Y03947D02*
X04141D01*
X04187Y03993*
X02858Y02719D02*
X02956D01*
X03002Y02673*
X03799*
X01959Y02728D02*
X02197D01*
X01904Y02783D02*
X01959Y02728D01*
X02412Y04029D02*
X02463Y03978D01*
X02095Y04029D02*
X02412D01*
X03875Y02573D02*
X03969D01*
X03829Y02619D02*
X03875Y02573D01*
X0313Y02619D02*
X03829D01*
X03085Y02574D02*
X0313Y02619D01*
X0299Y02574D02*
X03085D01*
X02895Y0267D02*
X0299Y02574D01*
X02509Y03933D02*
Y04032D01*
X02463Y04078D02*
X02509Y04032D01*
X04769Y04538D02*
X04862Y04445D01*
X03169Y04538D02*
X04769D01*
X03987Y03993D02*
X04159Y04166D01*
X04548*
X04728Y03986*
X05594Y03956D02*
X05639Y0391D01*
X05464Y03956D02*
X05594D01*
X05369Y03861D02*
X05464Y03956D01*
X05369Y03525D02*
Y03861D01*
X053Y03456D02*
X05369Y03525D01*
X05005Y03456D02*
X053D01*
X04918Y03542D02*
X05005Y03456D01*
X03799Y02973D02*
X03848Y02924D01*
X04316*
X04383Y0299*
X04075Y03447D02*
X04159D01*
X03969Y03341D02*
X04075Y03447D01*
X03969Y03073D02*
Y03341D01*
X02298Y03578D02*
X02352Y03633D01*
X02582*
X02887Y03938*
X03004*
X02279Y03765D02*
X02293Y03778D01*
X02211Y03765D02*
X02279D01*
X02211Y03525D02*
Y03765D01*
Y03525D02*
X02245Y03491D01*
X02548*
X02549Y03493*
X04114Y03225D02*
Y03398D01*
Y03225D02*
X04146Y03193D01*
X04845*
X04899Y03139*
X05539Y035D02*
Y0391D01*
X0543Y03391D02*
X05539Y035D01*
X0497Y03391D02*
X0543D01*
X04818Y03542D02*
X0497Y03391D01*
X03593Y02773D02*
X03799D01*
X03417Y02949D02*
X03593Y02773D01*
X05885Y0148D02*
X06053Y01648D01*
X0427Y01484D02*
X0492D01*
X04225Y01438D02*
X0427Y01484D01*
X02858Y03019D02*
X02903Y02974D01*
X03306*
X03331Y02999*
X03773*
X03799Y02973*
X04125Y01608D02*
X04205Y01528D01*
X05033*
X02074Y03183D02*
X02964D01*
X03028Y03119*
X02999Y04438D02*
X03045Y04393D01*
X03491*
X03583Y043*
Y04033D02*
Y043D01*
X05856Y04668D02*
X06026D01*
X06191Y04504*
X02007Y01385D02*
X02132Y0151D01*
X02253*
X02258Y01515*
Y01649*
X02028Y03138D02*
X02074Y03183D01*
X01683Y03138D02*
X02028D01*
X01579Y03034D02*
X01683Y03138D01*
X06594Y03915D02*
X06718Y04039D01*
X06139Y03915D02*
X06594D01*
X02074Y02783D02*
X02229D01*
X04493Y03952D02*
X04528Y03986D01*
X04229Y03952D02*
X04493D01*
X04187Y03993D02*
X04229Y03952D01*
X04025Y01608D02*
X04125D01*
X05065Y0442D02*
X05246D01*
X05041Y04445D02*
X05065Y0442D01*
X04862Y04445D02*
X05041D01*
X05414Y04397D02*
X0556D01*
X05391Y0442D02*
X05414Y04397D01*
X05246Y0442D02*
X05391D01*
X02298Y03678D02*
X02463D01*
G54D19*
X04862Y04445D03*
X04899Y03039D03*
X06371Y01773D03*
X05856Y04668D03*
X0556Y04397D03*
X05246Y0442D03*
X06191Y04504D03*
X04159Y03447D03*
X03417Y03049D03*
X02509Y0302D03*
X01579Y03034D03*
G54D20*
X04862Y04545D03*
X04899Y03239D03*
Y03139D03*
X06371Y02873D03*
Y02773D03*
Y02673D03*
Y02573D03*
Y02473D03*
Y02373D03*
Y02273D03*
Y02173D03*
Y02073D03*
Y01973D03*
Y01873D03*
X0659Y03672D03*
X0669D03*
X06618Y04039D03*
X06718D03*
X04528Y03986D03*
X04628D03*
X05856Y04568D03*
Y04468D03*
X0556Y04497D03*
X05246Y0462D03*
Y0452D03*
X06191Y04404D03*
X04087Y03993D03*
X04187D03*
X03583Y04033D03*
X03483D03*
X04159Y03347D03*
Y03247D03*
X03417Y02949D03*
Y02849D03*
X02509Y0292D03*
Y0282D03*
X01579Y02934D03*
Y02834D03*
G54D21*
X03004Y03938D03*
Y04038D03*
X02999Y04138D03*
Y04238D03*
Y04338D03*
Y04438D03*
Y04538D03*
X03169Y04438D03*
Y04338D03*
Y04238D03*
Y04138D03*
Y04038D03*
Y03938D03*
X02298Y03578D03*
Y03678D03*
X02293Y03778D03*
Y03878D03*
Y03978D03*
Y04078D03*
Y04178D03*
X02463Y04078D03*
Y03978D03*
Y03878D03*
Y03778D03*
Y03678D03*
Y03578D03*
X03725Y01608D03*
X04425D03*
X04325D03*
X04225D03*
X04125D03*
X04025D03*
X03925D03*
X03825D03*
X04425Y01438D03*
X04325D03*
X04225D03*
X04025D03*
X03925D03*
X03725D03*
X03825D03*
X02007Y01555D03*
X02707D03*
X02607D03*
X02507D03*
X02407D03*
X02307D03*
X02207D03*
X02107D03*
X02707Y01385D03*
X02607D03*
X02507D03*
X02307D03*
X02207D03*
X02007D03*
X02107D03*
X06139Y03915D03*
X06039D03*
X05939Y0391D03*
X05839D03*
X05739D03*
X05639D03*
X05539D03*
X05639Y0408D03*
X05739D03*
X05839D03*
X05939D03*
X06039D03*
X06139D03*
X05418Y03547D03*
X05318D03*
X05218Y03542D03*
X05118D03*
X05018D03*
X04918D03*
X04818D03*
X04918Y03712D03*
X05018D03*
X05118D03*
X05218D03*
X05318D03*
X05418D03*
X05033Y01528D03*
X05133D03*
X05233Y01533D03*
X05333D03*
X05433D03*
X05533D03*
X05633D03*
X05533Y01363D03*
X05433D03*
X05333D03*
X05233D03*
X05133D03*
X05033D03*
X01909Y02583D03*
Y02683D03*
X01904Y02783D03*
Y02883D03*
Y02983D03*
Y03083D03*
Y03183D03*
X02074Y03083D03*
Y02983D03*
Y02883D03*
Y02783D03*
Y02683D03*
Y02583D03*
X03804Y02473D03*
Y02573D03*
X03799Y02673D03*
Y02773D03*
Y02873D03*
Y02973D03*
Y03073D03*
X03969Y02973D03*
Y02873D03*
Y02773D03*
Y02673D03*
Y02573D03*
Y02473D03*
X02863Y02519D03*
Y02619D03*
X02858Y02719D03*
Y02819D03*
Y02919D03*
Y03019D03*
Y03119D03*
X03028Y03019D03*
Y02919D03*
Y02819D03*
Y02719D03*
Y02619D03*
Y02519D03*
X04388Y0249D03*
Y0259D03*
X04383Y0269D03*
Y0279D03*
Y0289D03*
Y0299D03*
Y0309D03*
X04553Y0299D03*
Y0289D03*
Y0279D03*
Y0269D03*
Y0259D03*
Y0249D03*
X05237Y0247D03*
Y0257D03*
X05232Y0267D03*
Y0277D03*
Y0287D03*
Y0297D03*
Y0307D03*
X05402Y0297D03*
Y0287D03*
Y0277D03*
Y0267D03*
Y0257D03*
Y0247D03*
G54D22*
X03169Y04538D03*
X02463Y04178D03*
X02074Y03183D03*
X03969Y03073D03*
X03028Y03119D03*
X04553Y0309D03*
X05402Y0307D03*
G54D23*
X0649Y03672D03*
X06518Y04039D03*
X04728Y03986D03*
X03987Y03993D03*
X03683Y04033D03*
G54D24*
X04125Y01438D03*
X02407Y01385D03*
X05539Y0408D03*
X04818Y03712D03*
X05633Y01363D03*
G54D25*
X02889Y04093D03*
M02*